<svg width="38" height="38" viewBox="0 0 38 38" fill="none" xmlns="http://www.w3.org/2000/svg">
<circle cx="19" cy="19" r="19" fill="url(#paint0_linear_72_2032)"/>
<path d="M16.8999 9.86V18.25H22.3799C22.7899 18.25 23.1299 18.59 23.1299 19C23.1299 19.41 22.7899 19.75 22.3799 19.75H16.8999V28.14C16.8999 28.62 17.2799 29 17.7599 29C23.6499 29 27.7599 24.89 27.7599 19C27.7599 13.11 23.6499 9 17.7599 9C17.2799 9 16.8999 9.38 16.8999 9.86Z" fill="white"/>
<path d="M12.7999 18.2501L14.3599 16.6901C14.6499 16.4001 14.6499 15.9201 14.3599 15.6301C14.0699 15.3401 13.5899 15.3401 13.2999 15.6301L10.4599 18.4801C10.1699 18.7701 10.1699 19.2501 10.4599 19.5401L13.3099 22.3801C13.4599 22.5201 13.6499 22.6001 13.8399 22.6001C14.0299 22.6001 14.2199 22.5301 14.3699 22.3801C14.6599 22.0901 14.6599 21.6101 14.3699 21.3201L12.8099 19.7601H16.8999V18.2601H12.7999V18.2501Z" fill="white"/>
<defs>
<linearGradient id="paint0_linear_72_2032" x1="0" y1="0" x2="42.9645" y2="31.1532" gradientUnits="userSpaceOnUse">
<stop offset="0.108037" stop-color="#5C43FF"/>
<stop offset="1" stop-color="#33CDFF"/>
</linearGradient>
</defs>
</svg>
