<svg width="200" height="200" viewBox="0 0 200 200" fill="none" xmlns="http://www.w3.org/2000/svg">
<path d="M100.3 1.08292V1.18144C100.398 1.67405 100.398 2.26519 100.398 2.85632V73.8908C100.3 74.2849 100.004 74.3834 99.7085 74.5805C97.6396 75.5657 95.6691 76.4524 93.6002 77.3391C90.743 78.6199 87.7874 79.9992 84.9302 81.28L74.5854 86.009C71.7282 87.2898 68.8711 88.5706 66.1125 89.8514C62.7627 91.4278 59.3144 92.9056 55.9647 94.4819C53.1075 95.7627 50.2504 97.142 47.2947 98.4228C44.9302 99.5066 42.5657 100.492 40.2997 101.576C40.1026 101.674 39.9056 101.773 39.7085 101.773C39.61 101.773 39.61 101.773 39.5115 101.674L42.1716 97.2406C47.2947 88.7677 52.3194 80.3933 57.4425 71.9204C62.8612 62.8563 68.3785 53.7923 73.7972 44.7282C78.8218 36.3539 83.945 27.9795 88.9696 19.6051C92.6149 13.4967 96.3588 7.38834 100.004 1.27996C100.103 1.08292 100.201 0.984398 100.201 0.787354H100.3C100.201 0.885876 100.3 0.984398 100.3 1.08292Z" fill="#8A92B2"/>
<path d="M160.788 101.674L160.887 101.773L146.404 110.344L100.887 137.241C100.69 137.339 100.493 137.438 100.394 137.536C100.099 137.536 100.099 137.241 100.099 137.142V136.256V75.369C100.099 75.0735 100.099 74.6794 100.197 74.3838C100.296 73.9897 100.591 74.0882 100.887 74.1868C102.168 74.7779 103.547 75.369 104.828 75.9602C108.67 77.7336 112.512 79.5069 116.355 81.1818C119.704 82.6597 122.956 84.236 126.305 85.7138C129.655 87.1917 133.005 88.768 136.355 90.2459C139.212 91.5267 142.168 92.906 145.025 94.1868C147.882 95.4675 150.837 96.8469 153.695 98.1276C155.961 99.1129 158.227 100.197 160.493 101.182C160.493 101.477 160.591 101.576 160.788 101.674Z" fill="#454A75"/>
<path d="M100.296 198.719C100.296 198.817 100.197 198.916 100.197 199.014H100.099C100.099 198.817 99.9015 198.719 99.803 198.521C93.6946 189.95 87.5862 181.28 81.4778 172.709C75.271 163.94 68.9655 155.073 62.7586 146.305C56.7488 137.832 50.6404 129.26 44.6306 120.787C43.0542 118.521 41.4779 116.354 39.9015 114.088C39.803 113.891 39.7045 113.792 39.5074 113.497C39.803 113.497 40 113.694 40.0985 113.792C48.67 118.817 57.1429 123.842 65.7143 128.866C75.5665 134.679 85.3202 140.492 95.1724 146.305L100.197 149.26C100.394 149.457 100.394 149.654 100.394 149.852V197.339C100.394 197.832 100.394 198.324 100.296 198.719Z" fill="#8A92B2"/>
<path d="M39.4089 101.872V101.773C42.5616 100.394 45.6158 98.916 48.7685 97.5367C52.8079 95.6647 56.8473 93.8913 60.8867 92.0194C63.9409 90.6401 67.0936 89.1623 70.1478 87.783C74.6798 85.714 79.1133 83.7435 83.6453 81.6746C86.6995 80.2953 89.7537 78.916 92.9064 77.4381C95.0739 76.4529 97.3399 75.4677 99.5074 74.4825C99.7044 74.3839 100 74.2854 100.099 74.0884C100.197 74.0884 100.197 74.1869 100.099 74.2854V136.847C100.099 137.143 100 137.438 100.197 137.635C100 137.931 99.803 137.635 99.7044 137.537C98.8177 137.044 97.931 136.551 97.0443 135.96C78.0296 124.729 58.9163 113.399 39.9015 102.167C39.803 102.069 39.6059 101.97 39.4089 101.872Z" fill="#62688F"/>
<path d="M160.591 113.497H160.69C160.69 113.694 160.493 113.891 160.394 114.088C142.266 139.605 124.138 165.221 106.01 190.738C104.138 193.398 102.167 196.058 100.296 198.719C100.197 198.62 100.197 198.521 100.197 198.423V197.832V150.049V149.162C104.335 146.699 108.374 144.334 112.512 141.871C128.473 132.413 144.433 123.053 160.296 113.595C160.394 113.694 160.493 113.595 160.591 113.497Z" fill="#62688F"/>
<path d="M100.197 74.2853V74.0883V73.4971V1.97006C100.197 1.6745 100.099 1.47745 100.296 1.18188C120.296 34.3839 140.296 67.4873 160.197 100.689C160.394 100.985 160.69 101.379 160.788 101.773C159.409 101.28 158.128 100.591 156.847 99.9996C155.271 99.31 153.596 98.5218 152.02 97.8321C151.035 97.3395 149.951 96.9454 148.966 96.4528C147.291 95.6646 145.616 94.975 143.941 94.1868C142.956 93.7927 141.97 93.3001 140.985 92.8075L134.483 89.8518C133.399 89.3592 132.315 88.8666 131.133 88.374L126.404 86.305C125.419 85.9109 124.434 85.4183 123.448 84.9257L116.946 81.9701C115.862 81.4774 114.778 80.9848 113.596 80.4922L108.867 78.4233C107.783 77.9306 106.798 77.438 105.714 76.9454C103.842 76.0587 101.97 75.172 100 74.3839C100.296 74.2853 100.197 74.2853 100.197 74.2853Z" fill="#62688F"/>
</svg>
