<svg width="572" height="164" viewBox="0 0 572 164" fill="none" xmlns="http://www.w3.org/2000/svg">
<path d="M16.7857 56L19.9703 45.4205H38.2147L41.3993 56H57.5925L39.3482 0.727271H18.8368L0.592507 56H16.7857ZM23.3709 34.1932L28.8766 15.9489H29.3084L34.8141 34.1932H23.3709ZM78.0566 56H92.8464V49.1989H93.1703C94.8975 53.4091 98.8919 56.5398 104.721 56.5398C113.574 56.5398 121.023 49.6307 121.023 35.2727C121.023 20.267 113.034 14.0057 104.829 14.0057C98.676 14.0057 94.7896 17.5682 93.1703 21.7784H92.9544V0.727271H78.0566V56ZM92.6305 35.2727C92.6305 29.1193 95.1135 25.4489 99.2157 25.4489C103.318 25.4489 105.693 29.1193 105.693 35.2727C105.693 41.4261 103.318 45.0966 99.2157 45.0966C95.1135 45.0966 92.6305 41.3182 92.6305 35.2727ZM147.121 56.7557C158.618 56.7557 166.013 51.25 167.416 42.6136H153.814C152.95 44.9616 150.494 46.2841 147.444 46.2841C143.018 46.2841 140.427 43.3693 140.427 39.375V38.7273H167.416V35.2727C167.416 22.0753 159.319 14.0057 146.797 14.0057C133.95 14.0057 125.746 22.5341 125.746 35.3807C125.746 48.794 133.842 56.7557 147.121 56.7557ZM140.427 30.5227C140.508 26.9332 143.477 24.4773 147.121 24.4773C150.818 24.4773 153.625 26.9602 153.706 30.5227H140.427ZM198.217 14.5455H191.092V4.61364H176.194V14.5455H170.904V25.3409H176.194V44.071C176.086 52.7614 181.457 57.1605 191.74 56.5938C195.113 56.4048 197.623 55.7031 198.972 55.2983L196.813 44.8267C196.247 44.9616 194.789 45.2585 193.899 45.2585C191.955 45.2585 191.092 44.3949 191.092 42.6676V25.3409H198.217V14.5455ZM229.018 14.5455H221.893V4.61364H206.995V14.5455H201.705V25.3409H206.995V44.071C206.887 52.7614 212.258 57.1605 222.54 56.5938C225.914 56.4048 228.424 55.7031 229.773 55.2983L227.614 44.8267C227.047 44.9616 225.59 45.2585 224.699 45.2585C222.756 45.2585 221.893 44.3949 221.893 42.6676V25.3409H229.018V14.5455ZM254.515 56.7557C266.012 56.7557 273.407 51.25 274.811 42.6136H261.208C260.345 44.9616 257.889 46.2841 254.839 46.2841C250.413 46.2841 247.822 43.3693 247.822 39.375V38.7273H274.811V35.2727C274.811 22.0753 266.714 14.0057 254.191 14.0057C241.345 14.0057 233.14 22.5341 233.14 35.3807C233.14 48.794 241.237 56.7557 254.515 56.7557ZM247.822 30.5227C247.903 26.9332 250.872 24.4773 254.515 24.4773C258.213 24.4773 261.019 26.9602 261.1 30.5227H247.822ZM280.89 56H295.787V34.4091C295.787 29.6591 299.053 26.5284 303.452 26.5284C304.991 26.5284 307.474 26.7713 308.958 27.2841V14.5724C307.77 14.2216 306.475 14.0057 305.18 14.0057C300.753 14.0057 297.299 16.5966 295.787 22.4261H295.356V14.5455H280.89V56ZM336.324 56H352.41L358.239 33.7614H358.671L364.501 56H380.586L390.949 14.5455H376.052L371.518 39.5909H371.194L365.688 14.5455H351.222L345.932 39.8068H345.608L340.858 14.5455H325.961L336.324 56ZM407.035 56.6477C412.432 56.6477 416.508 54.8125 419.018 50.1705H419.341V56H433.268V27.608C433.268 19.9432 426.008 14.0057 414.16 14.0057C401.772 14.0057 395.672 20.483 395.16 28.0398H408.87C409.221 25.4759 411.11 24.2614 413.944 24.2614C416.535 24.2614 418.37 25.4489 418.37 27.608V27.7159C418.37 30.1179 415.725 30.8736 408.762 31.3864C400.206 32.0071 393.54 35.4616 393.54 44.5568C393.54 52.8153 399.1 56.6477 407.035 56.6477ZM411.893 47.2557C409.356 47.2557 407.574 46.0142 407.574 43.6932C407.574 41.5611 409.086 39.9148 412.54 39.375C414.915 38.9972 416.912 38.5114 418.478 37.8636V41.3182C418.478 45.0966 415.266 47.2557 411.893 47.2557ZM447.97 71.5455C458.387 71.5455 463.272 66.3097 465.566 59.4545L480.68 14.5455H465.026L458.225 43.2614H457.794L451.1 14.5455H435.555L450.129 57.8352L449.805 58.5909C448.806 60.8849 445.919 60.804 442.248 59.5085L439.009 70.0881C441.33 71.0057 444.542 71.5455 447.97 71.5455ZM524.779 14.5455H517.654V4.61364H502.757V14.5455H497.467V25.3409H502.757V44.071C502.649 52.7614 508.019 57.1605 518.302 56.5938C521.676 56.4048 524.186 55.7031 525.535 55.2983L523.376 44.8267C522.809 44.9616 521.352 45.2585 520.461 45.2585C518.518 45.2585 517.654 44.3949 517.654 42.6676V25.3409H524.779V14.5455ZM550.385 56.7557C563.879 56.7557 571.868 48.1193 571.868 35.3807C571.868 22.642 563.879 14.0057 550.385 14.0057C536.89 14.0057 528.902 22.642 528.902 35.3807C528.902 48.1193 536.89 56.7557 550.385 56.7557ZM550.493 45.7443C546.498 45.7443 544.123 41.777 544.123 35.2727C544.123 28.7685 546.498 24.8011 550.493 24.8011C554.271 24.8011 556.646 28.7685 556.646 35.2727C556.646 41.777 554.271 45.7443 550.493 45.7443ZM110.976 148.756C122.473 148.756 129.868 143.25 131.271 134.614H117.669C116.806 136.962 114.35 138.284 111.3 138.284C106.874 138.284 104.283 135.369 104.283 131.375V130.727H131.271V127.273C131.271 114.075 123.175 106.006 110.652 106.006C97.8056 106.006 89.601 114.534 89.601 127.381C89.601 140.794 97.6976 148.756 110.976 148.756ZM104.283 122.523C104.364 118.933 107.333 116.477 110.976 116.477C114.673 116.477 117.48 118.96 117.561 122.523H104.283ZM148.902 148.648C154.3 148.648 158.375 146.812 160.885 142.17H161.209V148H175.135V119.608C175.135 111.943 167.875 106.006 156.027 106.006C143.639 106.006 137.54 112.483 137.027 120.04H150.737C151.088 117.476 152.977 116.261 155.811 116.261C158.402 116.261 160.237 117.449 160.237 119.608V119.716C160.237 122.118 157.592 122.874 150.629 123.386C142.074 124.007 135.407 127.462 135.407 136.557C135.407 144.815 140.967 148.648 148.902 148.648ZM153.76 139.256C151.223 139.256 149.442 138.014 149.442 135.693C149.442 133.561 150.953 131.915 154.407 131.375C156.782 130.997 158.78 130.511 160.345 129.864V133.318C160.345 137.097 157.133 139.256 153.76 139.256ZM182.253 148H197.151V126.409C197.151 121.659 200.416 118.528 204.816 118.528C206.354 118.528 208.837 118.771 210.321 119.284V106.572C209.134 106.222 207.838 106.006 206.543 106.006C202.117 106.006 198.662 108.597 197.151 114.426H196.719V106.545H182.253V148ZM230.104 124.682C230.131 120.58 232.452 118.097 236.149 118.097C239.901 118.097 242.114 120.58 242.087 124.682V148H256.985V121.551C257.012 112.537 251.317 106.006 242.519 106.006C236.419 106.006 231.588 109.19 229.78 114.426H229.348V106.545H215.206V148H230.104V124.682Z" fill="white"/>
<path d="M288.548 163.545C298.965 163.545 303.85 158.31 306.144 151.455L321.258 106.545H305.605L298.803 135.261H298.372L291.678 106.545H276.133L290.707 149.835L290.383 150.591C289.384 152.885 286.497 152.804 282.826 151.509L279.588 162.088C281.909 163.006 285.12 163.545 288.548 163.545ZM325.495 148H340.393V106.545H325.495V148ZM332.944 102.227C336.992 102.227 340.285 99.1776 340.285 95.4261C340.285 91.6747 336.992 88.625 332.944 88.625C328.896 88.625 325.603 91.6747 325.603 95.4261C325.603 99.1776 328.896 102.227 332.944 102.227ZM367.847 148.756C379.344 148.756 386.739 143.25 388.143 134.614H374.54C373.677 136.962 371.221 138.284 368.171 138.284C363.745 138.284 361.154 135.369 361.154 131.375V130.727H388.143V127.273C388.143 114.075 380.046 106.006 367.523 106.006C354.677 106.006 346.472 114.534 346.472 127.381C346.472 140.794 354.569 148.756 367.847 148.756ZM361.154 122.523C361.235 118.933 364.204 116.477 367.847 116.477C371.545 116.477 374.351 118.96 374.432 122.523H361.154ZM409.119 92.7273H394.222V148H409.119V92.7273ZM431.716 148.54C437.545 148.54 441.54 145.409 443.267 141.199H443.591V148H458.381V92.7273H443.483V113.778H443.267C441.648 109.568 437.761 106.006 431.608 106.006C423.403 106.006 415.415 112.267 415.415 127.273C415.415 141.631 422.863 148.54 431.716 148.54ZM437.221 137.097C433.119 137.097 430.744 133.426 430.744 127.273C430.744 121.119 433.119 117.449 437.221 117.449C441.324 117.449 443.807 121.119 443.807 127.273C443.807 133.318 441.324 137.097 437.221 137.097ZM473.791 148.864C477.758 148.864 481.294 145.517 481.348 141.307C481.294 137.205 477.758 133.858 473.791 133.858C469.608 133.858 466.18 137.205 466.234 141.307C466.18 145.517 469.608 148.864 473.791 148.864Z" fill="url(#paint0_linear_0_115)"/>
<defs>
<linearGradient id="paint0_linear_0_115" x1="-92" y1="-18" x2="39.9218" y2="375.538" gradientUnits="userSpaceOnUse">
<stop offset="0.108037" stop-color="#5C43FF"/>
<stop offset="1" stop-color="#33CDFF"/>
</linearGradient>
</defs>
</svg>
