<svg width="38" height="41" viewBox="0 0 38 41" fill="none" xmlns="http://www.w3.org/2000/svg">
<path d="M35.5743 32.5311C35.0213 29.4491 33.8419 26.5133 32.109 23.9052L17.864 1.36479C18.1092 0.522459 18.2159 0 18.2159 0L33.7618 24.6089C36.5084 28.7292 37.8366 33.6326 37.545 38.5758C37.2535 43.5189 35.3582 48.2323 32.1463 52.0011C28.9345 55.7699 24.5814 58.3887 19.747 59.4604C14.9126 60.5321 9.86057 59.9983 5.35693 57.9398C9.12234 59.3408 13.194 59.709 17.1496 59.0061C20.0997 58.4815 22.9173 57.38 25.441 55.7646C27.9646 54.1492 30.1447 52.0517 31.8563 49.5923C33.5679 47.1328 34.7773 44.3599 35.4153 41.4322C36.0534 38.5045 36.1074 35.4797 35.5743 32.5311Z" fill="#C1D68E" fill-opacity="0.03"/>
<path d="M-0.699341 53.856C3.80108 55.383 8.66665 55.4626 13.2146 54.0836C17.7625 52.7045 21.7645 49.936 24.6589 46.1666C27.5533 42.3972 29.1948 37.8162 29.353 33.0664C29.5112 28.3166 28.1781 23.6365 25.541 19.6828L16.4779 5.25654C17.0383 3.99172 17.5156 2.6917 17.9067 1.36475L32.1624 23.9158C34.2587 27.0597 35.5394 30.6759 35.889 34.4384C36.2386 38.2008 35.6462 41.9912 34.1651 45.4675C32.684 48.9438 30.3609 51.9967 27.4053 54.3509C24.4496 56.7052 20.9544 58.2866 17.2349 58.9527C14.0757 59.6795 10.7837 59.5943 7.66625 58.705C4.54881 57.8156 1.70745 56.1511 -0.592742 53.8667L-0.699341 53.856Z" fill="#8AAD4D" fill-opacity="0.03"/>
<path d="M25.5408 19.6828C28.178 23.6364 29.511 28.3165 29.3528 33.0663C29.1946 37.8161 27.5531 42.3971 24.6588 46.1665C21.7644 49.9359 17.7624 52.7044 13.2145 54.0835C8.66652 55.4625 3.80095 55.383 -0.69946 53.8559C-3.49446 51.273 -5.5959 48.0294 -6.81092 44.4228C-8.02593 40.8162 -8.31558 36.9622 -7.65329 33.2146C-6.991 29.4669 -5.39802 25.9456 -3.02048 22.9739C-0.642955 20.0022 2.44292 17.6753 5.95391 16.2068C11.5197 14.0743 14.7184 9.1269 16.4564 5.26709L25.5729 19.6934L25.5408 19.6828Z" fill="#C1D68E" fill-opacity="0.03"/>
</svg>
