<svg width="400" height="414" viewBox="0 0 400 414" fill="none" xmlns="http://www.w3.org/2000/svg">
<path opacity="0.1" d="M218.34 198.55L130.458 203.46V243.272C130.458 243.272 130.394 256.901 130.458 257.596V257.776C130.63 259.766 131.283 261.684 132.362 263.365C133.441 265.046 134.912 266.439 136.649 267.425L254.723 335.514V178.071L218.34 198.55Z" fill="url(#paint0_linear_0_1335)"/>
<path opacity="0.1" d="M399.043 188.902L363.698 190.878L346.55 191.844L330.177 192.747L322.307 193.189L314.184 188.487L312.848 187.71L282.007 169.948C280.365 168.999 278.528 168.436 276.636 168.301C274.744 168.167 272.846 168.465 271.086 169.172C270.539 169.392 270.008 169.651 269.498 169.948L254.723 178.477V335.469L286.051 317.418L305.447 306.217L312.803 301.975L323.95 295.54L343.346 284.339L392.933 255.692C394.416 254.847 395.708 253.703 396.725 252.333C397.743 250.962 398.465 249.395 398.844 247.731V247.686C399.269 245.827 398.844 233.245 398.844 233.245L399.043 188.902Z" fill="url(#paint1_linear_0_1335)"/>
<path d="M295.004 213.162C288.795 217.567 287.513 219.48 285.293 219.706C283.072 219.932 272.837 222.513 269.543 226.096C266.248 229.679 267.99 231.133 264.127 232.559C260.264 233.985 256.077 234.824 252.322 238.145C248.567 241.467 244.072 245.483 238.874 246.025C233.675 246.566 230.516 250.971 227.492 252.244C224.469 253.516 222.14 253.805 218.584 257.361C215.028 260.917 215.56 261.396 211.165 263.128C206.769 264.861 204.233 264.934 200.099 267.876C195.966 270.818 194.991 272.93 191.651 274.402C188.312 275.873 186.236 275.837 186.489 276.775C186.696 277.524 186.985 280.088 188.763 281.541C190.334 281.712 191.254 281.541 195.253 283.184C196.524 283.513 197.77 283.935 198.98 284.447C204.396 286.631 205.533 288.184 208.629 291.442C210.903 293.834 211.138 295.413 213.295 296.614C217.465 297.516 216.779 296.162 219.766 298.229C221.427 298.229 221.499 297.94 225.443 300.937C231.003 305.143 229.956 304.024 234.171 308.329C238.386 312.634 239.406 313.004 242.195 313.744C244 314.241 245.183 316.326 247.502 317.761C247.944 317.839 248.39 317.887 248.838 317.905C248.838 317.905 258.432 315.703 260.147 312.724C261.862 309.746 262.575 309.62 269.389 307.083C276.204 304.547 275.283 306.416 277.052 303.636C278.821 300.856 279.471 297.949 288.352 295.097C297.234 292.245 294.67 290.738 301.169 286.342C307.667 281.947 309.915 284.655 316.025 278.779C322.135 272.903 320.285 272.669 324.238 271.558C328.192 270.448 332.361 270.755 335.213 267.75C338.066 264.744 337.019 263.652 339.248 262.948C346.469 260.637 343.571 263.607 348.58 259.112C353.59 254.617 352.38 253.417 354.637 252.677C358.4 251.44 363.337 252.108 359.79 249.771L359.33 249.473C358.779 249.053 358.144 248.755 357.469 248.6C356.793 248.444 356.092 248.434 355.413 248.57C354.14 248.796 353.175 249.139 350.999 246.512C347.678 242.496 353.942 242.342 348.066 240.005C339.483 237.469 340.403 241.44 336.387 238.2C334.961 238.479 334.04 238.389 330.809 235.257C327.081 231.647 326.928 229.761 326.395 228.741C322.722 228.461 319.861 228.118 317.965 226.936C314.987 226.412 312.947 225.428 312.099 223.064C311.422 221.186 311.521 219.986 311.196 219.201C307.911 219.065 308.705 220.103 305.781 218.298L305.302 218.009C304.346 218.145 304.075 218.235 302.089 217.043C298.93 215.148 302.089 216.619 297.576 214.056C296.907 213.7 296.329 213.193 295.889 212.576L295.004 213.162Z" fill="#8AAD4D"/>
<path d="M336.387 235.149C336.026 235.235 335.655 235.266 335.286 235.239C334.446 235.167 332.497 233.732 330.773 232.207L330.619 232.053C328.679 230.331 327.213 228.14 326.359 225.69C322.686 225.41 319.825 225.067 317.929 223.885C314.951 223.352 312.911 222.369 312.063 220.004C311.715 218.916 311.456 217.803 311.286 216.673C311.247 216.494 311.19 216.318 311.115 216.15C307.83 216.006 308.624 217.053 305.699 215.247L305.221 214.959C304.264 215.094 303.994 215.184 302.008 213.993C298.849 212.097 302.008 213.569 297.495 211.014C296.825 210.655 296.247 210.145 295.807 209.525L295.013 210.085C288.803 214.489 287.522 216.403 285.301 216.628C283.081 216.854 272.846 219.435 269.552 223.018C268.477 224.171 267.64 225.523 267.088 226.999C266.618 228.019 266.104 228.75 264.136 229.481C260.273 230.907 256.085 231.746 252.331 235.068C248.576 238.389 244.081 242.406 238.883 242.947C235.119 243.335 232.429 245.754 230.083 247.541C229.288 248.181 228.422 248.727 227.501 249.166C224.469 250.438 222.149 250.727 218.593 254.283C217.483 255.403 216.788 256.206 216.183 256.847C215.555 257.595 214.812 258.238 213.981 258.751C213.079 259.258 212.141 259.695 211.174 260.06C207.744 261.414 205.442 261.739 202.645 263.219L337.018 235.591L336.387 235.149Z" fill="#C9DD8C"/>
<path d="M359.33 246.395C358.777 245.977 358.143 245.681 357.468 245.526C356.793 245.37 356.093 245.359 355.413 245.492C354.14 245.727 353.175 246.061 350.999 243.434C348.824 240.808 350.629 239.905 350.702 238.922L253.712 297.769L199.296 265.394C195.83 268.047 194.783 269.907 191.651 271.324C188.312 272.795 186.236 272.759 186.489 273.697C186.696 274.446 186.985 277.01 188.763 278.472C190.334 278.643 191.254 278.472 195.253 280.106C196.524 280.435 197.77 280.857 198.98 281.369C204.396 283.553 205.533 285.106 208.629 288.364C210.903 290.756 211.129 292.335 213.295 293.536C217.465 294.438 216.779 293.084 219.766 295.151C221.427 295.151 221.499 294.872 225.443 297.859C231.003 302.065 229.956 300.946 234.171 305.251C238.386 309.556 239.406 309.926 242.195 310.666C244 311.163 245.183 313.257 247.502 314.692C247.945 314.762 248.39 314.807 248.838 314.827C248.838 314.827 258.432 312.625 260.147 309.647C261.862 306.668 262.575 306.542 269.389 304.006C276.204 301.469 275.283 303.338 277.052 300.567C278.821 297.796 279.471 294.872 288.352 292.019C297.234 289.167 294.67 287.66 301.169 283.274C307.667 278.887 309.915 281.577 316.025 275.701C322.135 269.825 320.285 269.6 324.238 268.435C328.192 267.271 332.361 267.641 335.213 264.627C338.066 261.612 336.008 261.188 339.248 259.825C343.571 258.02 346.532 260.357 350.71 255.195C354.889 250.032 352.768 251.585 354.637 249.554C357.344 246.666 360.882 247.821 359.79 246.647C359.646 246.547 359.492 246.463 359.33 246.395Z" fill="#C9DD8C"/>
<path d="M350.701 238.958C350.747 238.389 350.223 237.82 348.066 236.963C339.943 234.571 340.322 237.983 337.009 235.627L202.636 263.255C201.757 263.726 200.909 264.253 200.099 264.834L199.296 265.43L253.712 297.805L350.701 238.958Z" fill="#8AAD4D"/>
<path d="M135.114 187.584C134.774 188.06 134.329 188.452 133.815 188.73C130.331 190.698 132.759 189.57 130.322 191.032C128.796 191.934 128.589 191.88 127.84 191.772L127.479 191.998C125.204 193.351 125.818 192.566 123.291 192.674C123.002 193.27 123.074 194.2 122.551 195.644C121.901 197.449 120.33 198.225 118.038 198.631C116.576 199.534 114.373 199.796 111.539 200.012C110.87 201.955 109.699 203.686 108.146 205.031C105.655 207.44 104.942 207.513 103.84 207.296C100.754 209.805 101.458 206.745 94.8148 208.695C90.302 210.5 95.1127 210.617 92.5494 213.713C90.8796 215.735 90.1395 215.473 89.1557 215.293C88.6331 215.185 88.0937 215.189 87.5726 215.304C87.0516 215.419 86.5607 215.643 86.1321 215.961L85.7801 216.186C83.0724 217.991 86.8542 217.477 89.7514 218.425C91.4934 219.002 90.6088 219.968 94.4177 223.389C98.2265 226.809 96.0694 224.562 101.638 226.34C103.335 226.882 102.541 227.73 104.743 230.041C106.945 232.351 110.158 232.08 113.209 232.974C116.26 233.868 114.825 234.039 119.527 238.57C124.229 243.101 125.98 241.025 130.963 244.4C135.945 247.776 134.004 248.913 140.837 251.143C147.669 253.372 148.174 255.583 149.546 257.722C150.918 259.861 150.196 258.417 155.449 260.376C160.702 262.334 161.253 262.434 162.57 264.726C163.888 267.019 171.28 268.707 171.28 268.707C171.625 268.694 171.968 268.66 172.309 268.607C174.114 267.497 175.017 265.9 176.398 265.512C178.546 264.925 179.322 264.609 182.571 261.315C185.82 258.02 185.017 258.869 189.304 255.628C192.337 253.327 192.391 253.571 193.673 253.543C195.974 251.955 195.478 252.993 198.664 252.298C200.325 251.395 200.469 250.159 202.274 248.318C204.657 245.808 205.533 244.608 209.702 242.902C210.634 242.508 211.594 242.183 212.573 241.927C214.141 241.185 215.84 240.756 217.573 240.664C218.945 239.545 219.17 237.568 219.378 236.99C219.576 236.268 217.97 236.295 215.398 235.185C212.825 234.075 212.067 232.478 208.89 230.158C205.713 227.838 203.754 227.838 200.361 226.503C196.967 225.167 197.382 224.806 194.648 222.062C191.913 219.318 190.135 219.093 187.788 218.109C185.441 217.125 183.032 213.74 179.024 213.325C175.017 212.91 171.56 209.814 168.663 207.251C165.765 204.688 162.543 204.047 159.565 202.946C156.586 201.845 157.931 200.734 155.395 197.973C152.859 195.211 144.979 193.207 143.265 193.045C141.55 192.882 140.557 191.402 135.782 188.008L135.114 187.584Z" fill="#8AAD4D"/>
<path d="M135.114 185.237C134.779 185.717 134.333 186.11 133.815 186.383C130.331 188.36 132.759 187.232 130.322 188.685C128.796 189.587 128.589 189.533 127.84 189.425L127.479 189.65C125.204 191.013 125.818 190.219 123.291 190.327C123.002 190.932 123.074 191.862 122.551 193.297C121.901 195.102 120.33 195.878 118.038 196.284C116.576 197.187 114.373 197.458 111.539 197.665C110.87 199.608 109.699 201.339 108.146 202.684C105.628 205.148 104.942 205.148 103.822 204.958C100.736 207.458 101.44 204.398 94.7968 206.348C90.284 208.153 95.0947 208.27 92.5314 211.366C90.8616 213.388 90.1216 213.126 89.1378 212.946C88.6151 212.84 88.0761 212.845 87.5554 212.96C87.0347 213.075 86.5438 213.298 86.1142 213.614C85.9895 213.68 85.8715 213.759 85.7621 213.848C84.9228 214.751 87.6485 213.848 89.7335 216.087C91.1776 217.63 89.5349 216.448 92.757 220.428C95.9792 224.408 98.2627 222.594 101.584 223.993C104.084 225.049 102.487 225.383 104.689 227.703C106.891 230.022 110.104 229.742 113.155 230.636C116.206 231.53 114.771 231.701 119.473 236.223C124.175 240.745 125.926 238.678 130.908 242.062C135.891 245.447 133.95 246.575 140.783 248.805C147.615 251.034 148.12 253.245 149.492 255.384C150.864 257.523 150.142 256.079 155.395 258.029C160.648 259.978 161.199 260.087 162.516 262.379C163.834 264.672 171.226 266.369 171.226 266.369C171.571 266.357 171.915 266.321 172.255 266.26C174.06 265.159 174.963 263.553 176.344 263.164C178.492 262.578 179.268 262.262 182.517 258.977C185.766 255.691 184.963 256.522 189.25 253.281C192.283 250.989 192.337 251.224 193.619 251.205C195.92 249.617 195.424 250.655 198.61 249.96C200.271 249.057 200.415 247.821 202.22 245.971C204.603 243.47 205.478 242.27 209.648 240.555C210.58 240.161 211.539 239.836 212.518 239.58C214.086 238.834 215.785 238.404 217.519 238.317C218.891 237.189 219.116 235.221 219.324 234.643C219.522 233.912 217.916 233.948 215.344 232.838C212.771 231.728 212.013 230.131 208.836 227.811C205.659 225.491 203.7 225.5 200.307 224.156C196.913 222.811 197.328 222.459 194.594 219.715C191.859 216.971 190.081 216.745 187.734 215.771C185.387 214.796 182.978 211.393 178.97 210.978C174.963 210.563 171.506 207.467 168.609 204.913C165.711 202.359 162.489 201.709 159.511 200.635C156.532 199.561 157.877 198.423 155.341 195.662C152.805 192.9 144.925 190.887 143.21 190.734C141.496 190.58 140.503 189.091 135.728 185.688L135.114 185.237Z" fill="#C9DD8C"/>
<path d="M131.577 209.895C130.206 210.646 129.06 211.749 128.257 213.091C127.454 214.433 127.024 215.964 127.01 217.527C126.996 219.09 127.4 220.629 128.178 221.985C128.957 223.34 130.084 224.463 131.441 225.239L186.958 256.828L199.251 249.048" fill="#8AAD4D"/>
<path d="M125.665 332.409C120.881 335.803 119.897 337.292 118.183 337.445C116.468 337.599 108.588 339.612 106.052 342.374C103.516 345.135 104.852 346.255 101.882 347.347C98.9128 348.439 95.6816 349.098 92.7843 351.652C89.8871 354.206 86.4664 357.311 82.4229 357.726C78.3794 358.141 75.9876 361.535 73.659 362.51C71.3303 363.485 69.5343 363.71 66.7995 366.463C64.0647 369.216 64.4709 369.568 61.0772 370.904C57.6836 372.239 55.7431 372.276 52.557 374.559C49.3709 376.843 48.6218 378.449 46.0495 379.586C43.4772 380.724 41.8616 380.687 42.0692 381.391C42.2316 381.969 42.4483 383.946 43.8202 385.065C45.5532 385.157 47.2516 385.586 48.8204 386.328C49.8002 386.581 50.7596 386.907 51.6905 387.303C55.8604 388.982 56.7449 390.182 59.1186 392.719C60.8786 394.524 61.0592 395.778 62.7289 396.699C65.942 397.394 65.4366 396.356 67.7111 397.944C68.9927 397.944 69.0469 397.728 72.0885 400.029C76.3757 403.27 75.5634 402.403 78.8126 405.716C82.0619 409.028 82.8471 409.326 84.9952 409.912C86.3852 410.292 87.2967 411.898 89.0748 413.008C89.4186 413.061 89.7652 413.094 90.1127 413.108C90.1127 413.108 97.5047 411.411 98.8225 409.118C100.14 406.826 100.691 406.726 105.944 404.777C111.197 402.827 110.457 404.262 111.847 402.123C113.236 399.984 113.715 397.737 120.547 395.544C127.38 393.35 125.439 392.177 130.421 388.802C135.403 385.426 137.154 387.502 141.866 382.971C146.577 378.44 145.151 378.269 148.184 377.375C151.216 376.481 154.502 376.761 156.641 374.442C158.78 372.122 158.058 371.283 159.755 370.741C165.287 368.936 163.076 371.247 166.975 367.79C170.874 364.333 169.9 363.403 171.642 362.826C174.539 361.923 178.339 362.392 175.604 360.587L175.252 360.362C174.825 360.044 174.336 359.819 173.816 359.704C173.296 359.589 172.758 359.586 172.237 359.694C171.253 359.874 170.513 360.136 168.835 358.114C166.271 355.018 169.927 354.748 165.396 352.943C158.789 350.993 160.666 354.206 157.58 351.697C156.487 351.914 155.774 351.841 153.283 349.432C151.732 348.083 150.559 346.353 149.881 344.413C147.056 344.197 144.844 343.935 143.382 343.032C141.099 342.626 139.528 341.868 138.869 340.045C138.355 338.601 138.427 337.671 138.138 337.075C135.611 336.967 136.216 337.752 133.95 336.399L133.58 336.173C132.84 336.281 132.633 336.344 131.098 335.433C128.67 333.971 131.098 335.099 127.614 333.131C127.096 332.857 126.651 332.465 126.315 331.985L125.665 332.409Z" fill="#8AAD4D"/>
<path d="M138.12 334.684C135.593 334.576 136.197 335.37 133.932 334.007L133.562 333.781C132.822 333.89 132.614 333.962 131.08 333.041C128.652 331.588 131.08 332.716 127.596 330.74C127.076 330.469 126.63 330.075 126.296 329.594L125.682 330.027C120.899 333.429 119.915 334.919 118.2 335.072C116.485 335.226 108.606 337.229 106.07 339.991C105.244 340.882 104.597 341.924 104.165 343.06L138.237 335.117C138.21 334.97 138.171 334.825 138.12 334.684Z" fill="#C9DD8C"/>
<path d="M175.568 358.205C175.46 358.113 175.342 358.034 175.216 357.97C174.788 357.655 174.298 357.432 173.779 357.317C173.26 357.202 172.722 357.197 172.201 357.302C171.217 357.483 170.477 357.744 168.798 355.723C166.235 352.627 171.064 352.51 166.542 350.704C159.926 348.755 160.63 351.815 157.516 349.315C157.238 349.374 156.953 349.398 156.668 349.387C156.018 349.324 154.52 348.213 153.22 347.04L92.2699 381.563L64.9131 366.057C64.4266 366.633 63.8506 367.127 63.2072 367.519C62.5136 367.912 61.7892 368.247 61.0411 368.521C57.6565 369.866 55.7069 369.902 52.5209 372.177C49.3348 374.451 48.5857 376.076 46.0134 377.204C43.441 378.332 41.8254 378.305 42.033 379.009C42.1955 379.587 42.4121 381.554 43.784 382.682C45.5178 382.77 47.2171 383.199 48.7842 383.946C49.7653 384.194 50.7251 384.52 51.6544 384.921C55.8242 386.599 56.7087 387.8 59.0825 390.336C60.8425 392.186 61.023 393.405 62.6928 394.325C65.9059 395.02 65.4005 393.982 67.6749 395.571C68.9566 395.571 69.0107 395.354 72.0524 397.647C76.3395 400.887 75.5272 400.03 78.7765 403.342C82.0257 406.655 82.811 406.952 84.9591 407.53C86.349 407.909 87.2606 409.525 89.0387 410.626C89.3817 410.686 89.7285 410.722 90.0766 410.734C90.0766 410.734 97.4686 409.037 98.7864 406.745C100.104 404.452 100.655 404.353 105.908 402.394C111.161 400.436 110.42 401.88 111.81 399.75C113.2 397.62 113.679 395.363 120.511 393.17C127.344 390.977 125.403 389.804 130.385 386.428C135.367 383.052 137.118 385.119 141.83 380.588C146.541 376.058 145.115 375.895 148.148 375.002C151.18 374.108 154.466 374.379 156.605 372.068C158.744 369.758 157.209 369.415 159.71 368.359C163.04 366.96 165.324 368.774 168.546 364.794C171.768 360.813 170.125 361.996 171.569 360.452C173.681 358.214 176.407 359.107 175.568 358.205Z" fill="#C9DD8C"/>
<path d="M153.247 347.04L153.129 346.931C151.634 345.602 150.503 343.911 149.844 342.021C147.019 341.814 144.808 341.543 143.346 340.64C141.062 340.234 139.492 339.476 138.833 337.653C138.565 336.816 138.366 335.959 138.237 335.09L104.147 343.059C103.949 343.535 103.639 343.957 103.246 344.29C102.852 344.622 102.384 344.857 101.882 344.973C98.9033 346.065 95.6811 346.724 92.7839 349.278C89.8867 351.832 86.466 354.928 82.4225 355.343C79.5252 355.65 77.4493 357.5 75.6442 358.881C75.0343 359.377 74.3677 359.798 73.6585 360.136C71.3209 361.111 69.5338 361.336 66.7991 364.08C65.8965 364.983 65.3911 365.56 64.9398 366.057L92.2965 381.563L153.247 347.04C153.003 346.85 153.527 347.319 153.247 347.04Z" fill="#8AAD4D"/>
<g opacity="0.55">
<path opacity="0.55" d="M127.966 176.988L147.489 165.895L154.086 135.632L134.69 146.833L127.966 176.988Z" fill="white"/>
<path opacity="0.55" d="M167.083 154.884L186.479 143.683L193.203 113.05L173.807 124.251L167.083 154.884Z" fill="white"/>
</g>
<path d="M398.14 78.3735L362.796 96.5963L345.647 97.5621L329.275 123.736L321.404 94.3941L313.281 119.476L311.945 134.044L281.15 126.2C279.507 125.252 277.671 124.689 275.779 124.554C273.887 124.42 271.989 124.717 270.229 125.424C269.681 125.645 269.15 125.904 268.64 126.2L253.82 134.748V291.713L270.184 282.263L285.148 273.626L304.544 262.425L311.9 258.183L323.047 251.747L342.443 240.547L392.03 211.917C393.513 211.073 394.805 209.929 395.823 208.558C396.841 207.188 397.562 205.621 397.942 203.957V203.911C398.366 202.052 397.942 189.47 397.942 189.47L398.14 78.3735ZM320.682 174.298L283.487 195.779V155.507L311.954 139.071L321.946 133.304L320.682 174.298Z" fill="url(#paint2_linear_0_1335)"/>
<path d="M283.488 155.507V195.779L320.682 174.298L321.946 133.303L311.954 139.071L283.488 155.507Z" fill="white"/>
<g opacity="0.55">
<path opacity="0.55" d="M272.873 281.053L292.269 269.862L321.584 133.854L302.188 145.127L272.873 281.053Z" fill="white"/>
<path opacity="0.55" d="M311.882 258.534L345.908 238.885L375.305 102.833L341.287 122.481L311.882 258.534Z" fill="white"/>
</g>
<path d="M199.215 183.197L221.779 196.23V173.666L199.215 160.633V183.197Z" fill="url(#paint3_linear_0_1335)"/>
<path d="M205.903 164.496L199.215 160.633V183.197L221.779 196.23V188.667L205.903 179.505V164.496Z" fill="url(#paint4_linear_0_1335)"/>
<path d="M205.903 164.496V179.506L221.779 188.667V173.666L205.903 164.496Z" fill="url(#paint5_linear_0_1335)"/>
<path d="M205.903 164.496V179.506L221.779 188.667V173.666L205.903 164.496Z" fill="url(#paint6_linear_0_1335)"/>
<path d="M218.341 100.17L130.458 93.3467V214.453C130.63 216.443 131.283 218.361 132.362 220.042C133.441 221.723 134.912 223.116 136.649 224.101L253.82 291.794V134.747L218.341 100.17ZM221.779 196.23L199.215 183.197V160.633L221.779 173.666V196.23Z" fill="url(#paint7_linear_0_1335)"/>
<path d="M155.811 139.116L149.123 135.244V157.808L171.687 170.841V163.278L155.811 154.117V139.116Z" fill="url(#paint8_linear_0_1335)"/>
<path d="M155.811 139.116V154.116L171.687 163.277V148.277L155.811 139.116Z" fill="url(#paint9_linear_0_1335)"/>
<path d="M155.811 139.116V154.116L171.687 163.277V148.277L155.811 139.116Z" fill="url(#paint10_linear_0_1335)"/>
<path d="M204.856 217.603L198.159 213.731V236.295L220.723 249.328V241.765L204.856 232.603V217.603Z" fill="url(#paint11_linear_0_1335)"/>
<path d="M204.856 217.603V232.604L220.723 241.765V226.764L204.856 217.603Z" fill="url(#paint12_linear_0_1335)"/>
<path d="M204.856 217.603V232.604L220.723 241.765V226.764L204.856 217.603Z" fill="url(#paint13_linear_0_1335)"/>
<path d="M205.903 164.496L183.113 170.101L215.777 203.839L221.779 188.667V173.666L205.903 164.496Z" fill="url(#paint14_linear_0_1335)"/>
<path d="M155.946 139.116L133.156 144.721L165.811 178.45L171.813 163.277V148.277L155.946 139.116Z" fill="url(#paint15_linear_0_1335)"/>
<path d="M205.082 217.603L182.292 223.208L214.947 256.937L220.949 241.765V226.764L205.082 217.603Z" fill="url(#paint16_linear_0_1335)"/>
<path opacity="0.8" d="M213.9 192.332C217.003 189.997 216.174 183.658 212.048 178.173C207.922 172.688 202.062 170.133 198.958 172.467C195.855 174.801 196.684 181.14 200.81 186.626C204.936 192.111 210.797 194.666 213.9 192.332Z" stroke="url(#paint17_linear_0_1335)" stroke-miterlimit="10"/>
<path opacity="0.8" d="M200.939 195.553C202.183 194.62 201.853 192.079 200.202 189.878C198.551 187.676 196.204 186.648 194.96 187.582C193.716 188.515 194.046 191.056 195.697 193.257C197.348 195.458 199.695 196.486 200.939 195.553Z" stroke="url(#paint18_linear_0_1335)" stroke-miterlimit="10"/>
<path opacity="0.8" d="M213.897 246.025C217 243.691 216.171 237.352 212.045 231.867C207.918 226.381 202.058 223.827 198.955 226.161C195.852 228.495 196.681 234.834 200.807 240.32C204.933 245.805 210.793 248.36 213.897 246.025Z" stroke="url(#paint19_linear_0_1335)" stroke-miterlimit="10"/>
<path opacity="0.8" d="M200.867 248.635C202.109 247.7 201.776 245.16 200.122 242.961C198.468 240.762 196.12 239.737 194.877 240.672C193.634 241.607 193.967 244.147 195.621 246.346C197.275 248.545 199.624 249.57 200.867 248.635Z" stroke="url(#paint20_linear_0_1335)" stroke-miterlimit="10"/>
<path opacity="0.8" d="M193.788 250.391C194.345 249.972 194.197 248.834 193.457 247.85C192.717 246.866 191.665 246.408 191.107 246.828C190.55 247.247 190.698 248.385 191.438 249.369C192.178 250.353 193.23 250.811 193.788 250.391Z" stroke="url(#paint21_linear_0_1335)" stroke-miterlimit="10"/>
<path opacity="0.8" d="M164.76 167.749C167.863 165.415 167.034 159.076 162.908 153.591C158.782 148.105 152.921 145.551 149.818 147.885C146.715 150.219 147.544 156.558 151.67 162.043C155.796 167.529 161.656 170.083 164.76 167.749Z" stroke="url(#paint22_linear_0_1335)" stroke-miterlimit="10"/>
<path opacity="0.8" d="M151.73 170.359C152.972 169.424 152.639 166.884 150.985 164.685C149.331 162.486 146.983 161.461 145.74 162.396C144.497 163.331 144.83 165.871 146.484 168.07C148.138 170.269 150.487 171.294 151.73 170.359Z" stroke="url(#paint23_linear_0_1335)" stroke-miterlimit="10"/>
<path d="M392.084 71.1349L344.05 43.3991L318.489 28.6421L281.168 7.08884C279.264 5.99363 277.105 5.41724 274.909 5.41724C272.712 5.41724 270.554 5.99363 268.649 7.08884L136.703 83.3015C134.803 84.3998 133.225 85.9788 132.128 87.8799C131.031 89.781 130.453 91.9373 130.453 94.1323C130.453 96.3272 131.031 98.4835 132.128 100.385C133.225 102.286 134.803 103.865 136.703 104.963L253.874 172.655L270.238 163.206L283.605 155.489L246.509 134.215L284.417 112.31L321.928 133.358L392.066 92.8597C393.982 91.7672 395.576 90.1876 396.684 88.2809C397.793 86.3742 398.378 84.2082 398.38 82.0025C398.382 79.7968 397.801 77.6299 396.695 75.7213C395.589 73.8128 393.999 72.2305 392.084 71.1349Z" fill="url(#paint24_linear_0_1335)"/>
<path d="M289.246 140.271L273.74 149.875L283.488 155.507L299.346 146.346L289.246 140.271Z" fill="white"/>
<path d="M246.509 134.152L273.739 149.874L291.375 138.944L291.574 107.923L246.509 134.152Z" fill="url(#paint25_linear_0_1335)"/>
<path d="M329.563 128.899L291.574 107.923L291.376 138.944L289.246 140.271L300.826 147.672L301.611 161.048L327.56 173.323L329.563 128.899Z" fill="url(#paint26_linear_0_1335)"/>
<path d="M165.396 306.614L165.341 306.659L165.396 306.614Z" fill="#C9DD8C"/>
<path d="M163.996 307.607C164.465 307.346 164.909 307.044 165.323 306.704L162.038 308.78L163.996 307.607Z" fill="white"/>
<path opacity="0.55" d="M132.298 355.876L139.871 321.236L151.929 314.277L143.752 349.269L132.298 355.876Z" fill="white"/>
<path opacity="0.55" d="M109.283 369.415L116.855 334.774L128.914 327.816L120.736 362.808L109.283 369.415Z" fill="white"/>
<path d="M186.344 112.49C205.939 123.989 235.471 125.424 252.304 115.712C269.136 106.001 266.898 88.7977 247.303 77.299C227.709 65.8003 198.177 64.3652 181.344 74.0859C164.511 83.8065 166.749 101 186.344 112.49Z" fill="url(#paint27_linear_0_1335)"/>
<path opacity="0.3" d="M186.344 118.077C205.939 129.567 235.471 131.011 252.304 121.29C269.136 111.57 266.898 94.376 247.303 82.8863C227.709 71.3966 198.177 69.9525 181.344 79.6641C164.511 89.3757 166.749 106.579 186.344 118.077Z" fill="url(#paint28_linear_0_1335)"/>
<path d="M250.652 103.365V109.124L248.801 110.261L247.547 108.835L245.57 106.578C247.605 106.178 249.417 105.032 250.652 103.365Z" fill="url(#paint29_linear_0_1335)"/>
<path d="M186.344 107.977C205.939 119.476 235.471 120.911 252.304 111.19C269.136 101.47 266.898 84.2758 247.303 72.7861C227.709 61.2965 198.177 59.8524 181.344 69.573C164.511 79.2936 166.749 96.4875 186.344 107.977ZM245.57 102.065C247.605 101.665 249.418 100.519 250.652 98.8522L255.074 103.861C254.903 106.705 250.517 107.706 250.517 107.706L245.57 102.065Z" fill="white"/>
<path d="M250.652 98.8525V104.602L248.801 105.748L247.547 104.322L245.57 102.066C247.605 101.665 249.417 100.519 250.652 98.8525Z" fill="url(#paint30_linear_0_1335)"/>
<path d="M250.643 98.8525L255.065 103.862C255.008 104.375 254.834 104.869 254.557 105.305C254.28 105.742 253.908 106.109 253.468 106.38L250.643 104.575V98.8525Z" fill="#22246A"/>
<path d="M250.643 104.602L253.468 106.407C252.565 107.012 251.563 107.455 250.507 107.716L248.793 105.766L250.643 104.602Z" fill="url(#paint31_linear_0_1335)"/>
<path opacity="0.45" d="M249.587 81.2434V12.4318C238.882 -1.37747 215.47 -4.65378 187.165 7.55793V74.4019" fill="url(#paint32_linear_0_1335)"/>
<path d="M225.768 67.4525V62.7682C228.469 63.3675 231.116 64.1855 233.684 65.2141V69.8985C231.118 68.8657 228.47 68.0476 225.768 67.4525Z" fill="#823984"/>
<path d="M225.768 62.7678V67.4522C217.519 65.647 208.62 65.647 201.399 67.7229V63.0386C208.656 60.9898 217.546 60.9266 225.768 62.7678Z" fill="#22246A"/>
<path d="M194.549 65.8546C195.368 65.3856 196.212 64.9608 197.076 64.582V69.2573C196.21 69.6355 195.366 70.0634 194.549 70.539C190.379 72.9398 187.942 76.0175 187.166 79.3119C186.047 74.3207 188.448 69.3747 194.549 65.8546Z" fill="#22246A"/>
<path d="M201.372 63.0385V67.7228C199.906 68.1332 198.47 68.6459 197.076 69.2571V64.5818C198.47 63.9676 199.906 63.4519 201.372 63.0385Z" fill="#1A225B"/>
<path d="M233.683 69.8982V65.25C234.803 65.7103 235.895 66.2067 236.951 66.7483V71.4326C235.895 70.8549 234.803 70.3585 233.683 69.8982Z" fill="#61288E"/>
<path d="M238.766 72.3716C238.179 72.0286 237.565 71.7037 236.961 71.3968V66.7125C237.574 67.0284 238.188 67.3443 238.766 67.6873C247.042 72.4619 250.643 78.7889 249.317 84.4479C248.36 80.1698 244.804 75.8555 238.766 72.3716Z" fill="#22246A"/>
<path d="M187.165 79.3122C187.165 79.1859 187.228 79.0595 187.264 78.9422C191.29 76.8753 197.933 77.2273 202.382 79.7906C206.832 82.3539 207.473 86.4515 203.493 88.744C201.16 89.9401 198.543 90.4709 195.929 90.2784C190.983 87.0021 188.032 83.1391 187.165 79.3122Z" fill="url(#paint33_linear_0_1335)"/>
<path d="M236.247 84.9529C231.337 82.1189 230.832 77.8227 235.056 75.3677C236.884 74.3947 238.907 73.8456 240.976 73.7611C245.679 76.9652 248.477 80.7199 249.316 84.4475C249.098 85.377 248.755 86.2726 248.296 87.1101C244.153 87.6917 239.931 86.936 236.247 84.9529Z" fill="url(#paint34_linear_0_1335)"/>
<path d="M187.265 78.9417C187.52 78.042 187.887 77.1778 188.357 76.3694C195.577 79.393 205.099 79.384 210.813 76.0896C215.226 73.5353 216.228 69.6904 214.044 66.1614C217.991 66.1823 221.924 66.624 225.777 67.4791C228.479 68.0742 231.126 68.8924 233.693 69.9251C234.812 70.3854 235.904 70.8818 236.96 71.4233C237.574 71.7302 238.187 72.0551 238.765 72.3981C239.144 72.6147 239.514 72.8404 239.875 73.066C237.235 73.0326 234.627 73.6527 232.285 74.8711C227.591 77.5788 228.178 82.3083 233.602 85.4402C238.006 87.8045 243.092 88.573 247.998 87.6154C246.481 89.9735 244.387 91.9057 241.915 93.2293C230.579 99.7729 210.785 98.9516 197.689 91.4242C197.066 91.0632 196.48 90.6931 195.884 90.314C190.938 87.0377 187.987 83.1747 187.12 79.3479C187.192 79.1854 187.228 79.059 187.265 78.9417Z" fill="url(#paint35_linear_0_1335)"/>
<path d="M233.602 85.4314C228.187 82.2995 227.591 77.57 232.284 74.8623C234.627 73.6439 237.235 73.0238 239.875 73.0572C240.254 73.2919 240.615 73.5355 240.976 73.7792C245.678 76.9833 248.476 80.738 249.316 84.4656C249.098 85.3951 248.754 86.2908 248.296 87.1282C248.206 87.2907 248.097 87.4621 247.998 87.6246C243.09 88.5767 238.004 87.8018 233.602 85.4314Z" fill="url(#paint36_linear_0_1335)"/>
<path d="M233.602 85.4314C228.187 82.2995 227.591 77.57 232.284 74.8623C234.627 73.6439 237.235 73.0238 239.875 73.0572C240.254 73.2919 240.615 73.5355 240.976 73.7792C245.678 76.9833 248.476 80.738 249.316 84.4656C249.098 85.3951 248.754 86.2908 248.296 87.1282C248.206 87.2907 248.097 87.4621 247.998 87.6246C243.09 88.5767 238.004 87.8018 233.602 85.4314Z" fill="url(#paint37_linear_0_1335)"/>
<path d="M194.548 70.5387C199.747 67.5332 206.742 66.0891 214.044 66.1342C216.237 69.6903 215.226 73.5352 210.813 76.0624C205.099 79.3568 195.622 79.3658 188.357 76.3422C189.873 73.8958 192.009 71.8937 194.548 70.5387Z" fill="url(#paint38_linear_0_1335)"/>
<path d="M194.548 70.5387C199.747 67.5332 206.742 66.0891 214.044 66.1342C216.237 69.6903 215.226 73.5352 210.813 76.0624C205.099 79.3568 195.622 79.3658 188.357 76.3422C189.873 73.8958 192.009 71.8937 194.548 70.5387Z" fill="url(#paint39_linear_0_1335)"/>
<path d="M220.051 88.9891C220.248 87.3761 218.097 85.7867 215.247 85.4393C212.397 85.0919 209.927 86.1179 209.73 87.731C209.533 89.3441 211.685 90.9334 214.535 91.2808C217.385 91.6282 219.855 90.6022 220.051 88.9891Z" fill="url(#paint40_linear_0_1335)"/>
<path d="M234.586 52.5418L232.962 47.9568H227.618L228.9 52.5418H234.586Z" fill="url(#paint41_linear_0_1335)"/>
<path d="M228.9 52.5417L227.618 56.2332L232.889 56.5491L234.586 52.5417" fill="url(#paint42_linear_0_1335)"/>
<path d="M227.618 56.2335L226.454 52.6683L227.618 48.1194L228.9 52.542L227.618 56.2335Z" fill="url(#paint43_linear_0_1335)"/>
<path d="M228.837 66.8204L229.478 64.9972L227.817 63.6614L227.077 65.4033L228.837 66.8204Z" fill="url(#paint44_linear_0_1335)"/>
<path d="M227.077 65.4033L225.76 66.2337L227.321 67.6417L228.837 66.8203" fill="url(#paint45_linear_0_1335)"/>
<path d="M225.76 66.2336L226.292 64.8346L227.781 63.7155L227.077 65.4032L225.76 66.2336Z" fill="url(#paint46_linear_0_1335)"/>
<path d="M218.738 57.3163L221.851 61.0529L219.117 65.647L215.831 62.2082L218.738 57.3163Z" fill="url(#paint47_linear_0_1335)"/>
<path d="M215.831 62.2083L212.004 61.4231L214.423 56.7297L218.737 57.3164" fill="url(#paint48_linear_0_1335)"/>
<path d="M212.004 61.4227L214.477 64.2478L218.981 65.5745L215.831 62.208L212.004 61.4227Z" fill="url(#paint49_linear_0_1335)"/>
<path d="M209.982 69.14L213.99 67.2627L217.41 70.7376L213.611 72.8315L209.982 69.14Z" fill="url(#paint50_linear_0_1335)"/>
<path d="M213.611 72.8318L212.04 76.0268L208.466 72.8047L209.983 69.1403" fill="url(#paint51_linear_0_1335)"/>
<path d="M212.04 76.0264L215.1 74.5011L217.302 70.8367L213.611 72.8313L212.04 76.0264Z" fill="url(#paint52_linear_0_1335)"/>
<path d="M216.959 48.6607L211.372 52.3342L205.514 47.8935L210.731 43.9403L216.959 48.6607Z" fill="url(#paint53_linear_0_1335)"/>
<path d="M210.731 43.9404L212.392 38.8229L218.322 43.2725L216.959 48.6608" fill="url(#paint54_linear_0_1335)"/>
<path d="M212.392 38.8229L207.834 42.0811L205.587 47.8756L210.731 43.9404L212.392 38.8229Z" fill="url(#paint55_linear_0_1335)"/>
<path d="M391.444 97.742L391.263 98.0128C392.301 98.5723 392.482 98.3016 393.483 96.7672C394.485 95.2329 394.269 95.3141 394.738 95.0253C394.312 95.0902 393.906 95.2473 393.547 95.4856C391.967 96.4333 392.725 95.7563 391.444 97.742Z" fill="#8AAD4D"/>
<path d="M395.081 94.7998L394.738 94.9984C394.909 94.9713 395.008 94.9442 395.081 94.7998Z" fill="#8AAD4D"/>
<path d="M397.319 81.4962C396.705 80.0701 397.319 79.3932 396.19 78.256C395.062 77.1187 393.781 72.7684 392.427 71.4867C391.073 70.2051 381.451 66.7482 380.919 65.8457C380.386 64.9431 371.523 61.035 365.503 57.6504C359.483 54.2658 355.728 49.5273 346.17 44.491C336.612 39.4547 327.749 36.9455 321.341 29.4271C314.932 21.9088 299.002 19.4989 295.392 15.7352C291.782 11.9715 284.714 10.0942 282.458 8.06342C280.202 6.03265 277.115 4.53439 274.182 5.21131C271.248 5.88824 269.073 7.54896 266.51 7.09768C265.497 6.89943 264.455 6.90508 263.445 7.11429C262.434 7.32351 261.476 7.73209 260.625 8.31614C260.288 8.5147 259.945 8.73132 259.596 8.96599C257.033 10.6989 256.735 11.7549 255.453 12.5762C254.172 13.3976 252.538 14.0113 252.376 15.2839C252.376 15.2839 253.052 19.2011 255.607 19.4989C258.161 19.7968 263.73 20.6993 265.986 23.7139C268.243 26.7285 265.535 28.2267 270.797 28.2267C276.059 28.2267 273.36 28.8224 277.72 31.9814C282.079 35.1404 282.232 33.3353 285.545 35.5917C288.857 37.8481 287.494 38.155 292.007 41.0071C296.52 43.8592 297.125 44.0668 300.284 45.3213C303.443 46.5759 304.95 45.222 305.248 48.1554C305.546 51.0887 306.448 51.7656 309.463 52.6682C312.477 53.5708 311.115 51.6393 316.079 56.1972C321.043 60.7552 320.51 60.3129 324.536 61.6668C328.561 63.0206 328.868 60.7642 330.971 64.889C333.074 69.0137 331.269 68.5624 336.089 70.53C340.908 72.4976 341.648 70.8098 343.453 73.8334C345.259 76.857 344.058 75.6385 347.371 78.2108C350.683 80.7831 355.187 80.747 360.458 84.7454C365.729 88.7438 362.714 87.8592 366.324 88.7528C369.935 89.6463 373.238 89.6554 375.801 92.6519C378.365 95.6484 376.803 96.2621 381.668 96.56C386.533 96.8578 387.083 96.56 387.083 96.56C387.083 96.56 387.986 96.1087 390.125 97.3904C390.585 97.6701 390.928 97.8777 391.217 98.0312L391.398 97.7604C392.679 95.8018 391.921 96.4788 393.501 95.504C393.86 95.2657 394.266 95.1086 394.692 95.0437L395.035 94.8451L395.541 94.5292C397.12 93.5544 397.048 94.8361 397.273 92.5797C397.499 90.3233 397.653 90.3233 397.878 88.7438C397.992 87.8483 398.192 86.9658 398.474 86.1083C398.826 84.9349 397.932 82.8951 397.319 81.4962Z" fill="#8AAD4D"/>
<path d="M392.879 96.0367C392.806 96.1359 392.761 96.2172 392.698 96.3074C393.736 96.867 393.917 96.5963 394.918 95.0619C395.92 93.5275 395.704 93.6088 396.173 93.3199C395.747 93.3849 395.34 93.542 394.982 93.7802C393.402 94.755 394.16 94.0781 392.879 96.0367Z" fill="#C9DD8C"/>
<path d="M396.507 93.1211L396.173 93.3197C396.344 93.2926 396.443 93.2294 396.507 93.1211Z" fill="#C9DD8C"/>
<path d="M398.754 79.7996C398.14 78.3736 398.754 77.6967 397.626 76.5594C396.498 75.4222 395.216 71.0718 393.862 69.7902C392.508 68.5085 382.887 65.0517 382.354 64.1491C381.822 63.2466 372.959 59.3385 366.939 55.9538C360.919 52.5692 357.164 47.8308 347.606 42.7944C338.048 37.7581 329.184 35.267 322.785 27.7487C316.386 20.2303 300.447 17.8204 296.836 14.0567C293.226 10.293 286.141 8.38863 283.903 6.38494C281.664 4.38124 278.559 2.8559 275.626 3.53283C272.693 4.20975 270.518 5.87047 267.954 5.41919C266.942 5.22095 265.9 5.2266 264.889 5.43581C263.879 5.64502 262.92 6.05361 262.07 6.63766C261.733 6.83622 261.39 7.05283 261.041 7.2875C258.477 9.02043 258.18 10.0764 256.898 10.8978C255.616 11.7191 253.974 12.3328 253.82 13.6055C253.82 13.6055 254.497 17.5226 257.051 17.8204C259.606 18.1183 265.174 19.0209 267.431 22.0354C269.687 25.05 266.98 26.5483 272.241 26.5483C277.503 26.5483 274.805 27.1439 279.164 30.3029C283.524 33.4619 283.677 31.6568 286.989 33.9132C290.302 36.1696 288.939 36.4765 293.452 39.3286C297.965 42.1807 298.569 42.3883 301.728 43.6428C304.887 44.8974 306.395 43.5436 306.692 46.4769C306.99 49.4102 307.893 50.0872 310.907 50.9897C313.922 51.8923 312.559 49.9608 317.523 54.5188C322.487 59.0767 321.955 58.6345 325.98 59.9883C330.006 61.3422 330.313 59.0857 332.416 63.2105C334.519 67.3352 332.713 66.8839 337.533 68.8515C342.353 70.8191 343.093 69.1313 344.898 72.1549C346.703 75.1785 345.503 73.96 348.815 76.5323C352.128 79.1047 356.631 79.0686 361.902 83.0669C367.173 87.0653 364.159 86.1808 367.769 87.0743C371.379 87.9678 374.683 87.9769 377.246 90.9734C379.809 93.9699 378.248 94.5837 383.113 94.8815C387.977 95.1794 388.528 94.8815 388.528 94.8815C388.528 94.8815 389.431 94.4302 391.579 95.7119C392.039 95.9917 392.382 96.1993 392.671 96.3527C392.734 96.2624 392.779 96.1812 392.851 96.0819C394.133 94.1234 393.375 94.8003 394.954 93.8255C395.313 93.5872 395.72 93.4301 396.146 93.3652L396.48 93.1666L396.994 92.8507C398.574 91.876 398.501 93.1576 398.727 90.9012C398.953 88.6448 399.106 88.6448 399.332 87.0653C399.446 86.1698 399.645 85.2873 399.927 84.4298C400.261 83.3016 399.368 81.2167 398.754 79.7996Z" fill="#C9DD8C"/>
<path opacity="0.7" d="M220.522 92.3401C246.675 89.3002 266.485 74.8624 264.768 60.0924C263.051 45.3224 240.458 35.8133 214.305 38.8532C188.151 41.8931 168.342 56.3309 170.058 71.1009C171.775 85.8709 194.368 95.3801 220.522 92.3401Z" stroke="url(#paint56_linear_0_1335)" stroke-miterlimit="10"/>
<path opacity="0.7" d="M219.791 58.3662C234.928 56.6068 246.393 48.2486 245.399 39.6975C244.405 31.1464 231.328 25.6407 216.192 27.4001C201.056 29.1594 189.591 37.5177 190.585 46.0688C191.579 54.6198 204.655 60.1256 219.791 58.3662Z" stroke="url(#paint57_linear_0_1335)" stroke-miterlimit="10"/>
<path d="M283.488 171.807L301.611 161.048L301.936 144.856L283.488 155.506V171.807Z" fill="url(#paint58_linear_0_1335)"/>
<path d="M291.376 138.945L273.189 149.568L283.487 155.507L301.936 144.856L291.376 138.945Z" fill="url(#paint59_linear_0_1335)"/>
<path d="M301.611 161.048L283.488 171.806V199.912L327.56 173.323L301.611 161.048Z" fill="url(#paint60_linear_0_1335)"/>
<path d="M319.238 71.974C319.238 71.974 314.121 82.2181 322.388 93.7619C333.363 109.106 348.184 103.862 348.184 103.862" fill="url(#paint61_linear_0_1335)"/>
<path d="M350.231 102.756C355.651 98.4165 353.722 86.9995 345.921 77.2556C338.121 67.5118 327.403 63.1308 321.982 67.4704C316.561 71.81 318.491 83.227 326.291 92.9708C334.092 102.715 344.81 107.096 350.231 102.756Z" fill="url(#paint62_linear_0_1335)"/>
<path d="M333.146 84.0234L348.183 73.4905L348.716 74.393L336.531 87.408C334.058 87.2907 333.39 86.3972 333.146 84.0234Z" fill="url(#paint63_linear_0_1335)"/>
<path d="M348.941 74.8894C349.669 74.8894 350.259 74.2994 350.259 73.5717C350.259 72.8439 349.669 72.2539 348.941 72.2539C348.214 72.2539 347.624 72.8439 347.624 73.5717C347.624 74.2994 348.214 74.8894 348.941 74.8894Z" fill="url(#paint64_linear_0_1335)"/>
<path d="M321.359 92.2186L309.156 102.075L309.887 102.806L322 93.2024" fill="url(#paint65_linear_0_1335)"/>
<path d="M309.888 102.806L324.554 111.1V109.918L310.393 102.075" fill="url(#paint66_linear_0_1335)"/>
<path d="M315.24 98.5636V104.755L316.296 105.342V97.7242" fill="url(#paint67_linear_0_1335)"/>
<path d="M319.608 95.0976L320.14 107.472L321.548 108.248L320.844 94.1228L319.608 95.0976Z" fill="url(#paint68_linear_0_1335)"/>
<path d="M324.554 111.1L325.809 110.522L326.053 98.031L324.861 96.8306L324.554 109.918" fill="url(#paint69_linear_0_1335)"/>
<path d="M325.637 109.647L334.428 105.685V106.588L324.554 111.1" fill="url(#paint70_linear_0_1335)"/>
<path d="M325.899 106.019L333.12 102.851C333.12 102.851 332.217 102.445 331.955 102.3L325.872 104.719" fill="url(#paint71_linear_0_1335)"/>
<path opacity="0.8" d="M371.33 82.9837C377.886 77.0347 376.54 64.8713 368.323 55.816C360.107 46.7606 348.131 44.2424 341.575 50.1914C335.018 56.1403 336.364 68.3037 344.581 77.3591C352.798 86.4144 364.774 88.9327 371.33 82.9837Z" stroke="url(#paint72_linear_0_1335)" stroke-miterlimit="10"/>
<path opacity="0.8" d="M359.691 77.9011C362.902 74.9869 362.242 69.0274 358.216 64.5902C354.189 60.1529 348.322 58.9182 345.11 61.8324C341.899 64.7466 342.559 70.7061 346.585 75.1433C350.612 79.5806 356.479 80.8152 359.691 77.9011Z" stroke="url(#paint73_linear_0_1335)" stroke-miterlimit="10"/>
<path opacity="0.8" d="M352.413 75.1836C353.583 74.1218 353.345 71.9532 351.882 70.34C350.418 68.7268 348.282 68.2798 347.112 69.3417C345.942 70.4035 346.18 72.572 347.644 74.1852C349.108 75.7985 351.243 76.2454 352.413 75.1836Z" stroke="url(#paint74_linear_0_1335)" stroke-miterlimit="10"/>
<path d="M90.3838 225.302L79.5982 219.074C79.4971 219.013 79.4118 218.928 79.3491 218.828C79.2864 218.728 79.2481 218.614 79.2372 218.496C79.2372 218.298 79.3996 218.226 79.5982 218.343L90.3838 224.571C90.4861 224.632 90.5728 224.715 90.637 224.816C90.7013 224.916 90.7412 225.03 90.7539 225.148C90.7539 225.347 90.5824 225.419 90.3838 225.302Z" fill="url(#paint75_linear_0_1335)"/>
<path d="M71.1946 192.051L44.4967 176.636C44.1242 176.417 43.7108 176.278 43.2822 176.227C42.8536 176.176 42.419 176.214 42.0056 176.338C41.8386 176.392 41.6757 176.459 41.5182 176.536L39.4423 177.376L40.1824 177.755C39.8861 178.251 39.7301 178.819 39.7311 179.397V197.449C39.7332 198.011 39.8826 198.562 40.1645 199.049C40.4464 199.535 40.851 199.939 41.3377 200.22L58.2247 209.967L58.3781 210.031L57.62 210.789L59.4251 210.13L59.5605 210.076L59.732 210.012C59.9868 209.885 60.2012 209.689 60.351 209.447C60.5009 209.205 60.5803 208.925 60.5804 208.641V202.178C60.5808 201.774 60.6874 201.376 60.8896 201.026C61.0917 200.676 61.3823 200.385 61.7323 200.182C62.0822 199.979 62.4793 199.871 62.8838 199.87C63.2883 199.869 63.686 199.974 64.0372 200.175L70.3552 203.83C70.4925 203.911 70.6377 203.977 70.7884 204.028L70.5267 204.687L72.0971 204.083C72.291 204.031 72.4786 203.958 72.6567 203.866C73.0317 203.665 73.3449 203.365 73.5627 202.999C73.7805 202.634 73.8948 202.216 73.8932 201.79V196.691C73.8917 195.748 73.6413 194.823 73.1674 194.008C72.6936 193.194 72.013 192.519 71.1946 192.051Z" fill="url(#paint76_linear_0_1335)"/>
<path d="M62.2145 200.834L68.5325 204.444C68.8933 204.651 69.3024 204.76 69.7186 204.759C70.1348 204.759 70.5435 204.648 70.9038 204.44C71.264 204.232 71.563 203.932 71.771 203.572C71.979 203.211 72.0885 202.802 72.0886 202.386V197.295C72.0863 196.353 71.8346 195.429 71.359 194.615C70.8834 193.802 70.2009 193.129 69.3809 192.665L42.683 177.249C42.1967 176.967 41.6445 176.817 41.082 176.816C40.5194 176.815 39.9666 176.963 39.4794 177.244C38.9922 177.525 38.5879 177.93 38.3073 178.417C38.0267 178.905 37.8797 179.458 37.8813 180.02V198.072C37.8797 198.633 38.0267 199.185 38.3072 199.672C38.5878 200.159 38.992 200.562 39.4789 200.843L56.3749 210.599C56.6089 210.737 56.8751 210.809 57.1463 210.81C57.4176 210.811 57.6842 210.74 57.9191 210.604C58.1539 210.468 58.3486 210.273 58.4832 210.037C58.6179 209.802 58.6876 209.535 58.6855 209.263V202.801C58.6847 202.389 58.7942 201.984 59.0026 201.628C59.211 201.273 59.5108 200.979 59.8708 200.779C60.2309 200.578 60.6381 200.477 61.0501 200.487C61.4622 200.496 61.8643 200.616 62.2145 200.834Z" fill="url(#paint77_linear_0_1335)"/>
<path d="M66.4207 197.304L52.8371 189.407V187.782L66.4207 195.68V197.304Z" fill="white"/>
<path d="M66.4207 200.734L52.8371 192.846V191.221L66.4207 199.118V200.734Z" fill="white"/>
<path d="M46.8168 196.799L42.2047 194.136V192.512L46.8168 195.174V196.799Z" fill="white"/>
<path d="M46.8168 200.238L42.2047 197.566V195.951L46.8168 198.613V200.238Z" fill="white"/>
<path d="M45.0839 183.324C44.7043 183.066 44.2776 182.887 43.8283 182.796C43.3791 182.704 42.9163 182.703 42.4664 182.791L42.9357 184.208C43.2866 184.063 43.669 184.012 44.0455 184.06C44.4221 184.107 44.7798 184.252 45.0839 184.479C45.8831 184.954 46.5598 185.609 47.0598 186.393C47.5598 187.177 47.8692 188.067 47.963 188.992C47.9776 189.13 47.9776 189.269 47.963 189.407H49.1364C48.9576 188.155 48.5009 186.958 47.7997 185.906C47.0984 184.853 46.1705 183.971 45.0839 183.324Z" fill="white"/>
<path d="M47.4847 190.318C46.9702 190.806 46.0857 190.806 45.0839 190.228C44.0367 189.579 43.2022 188.638 42.683 187.52C42.3921 186.942 42.2289 186.308 42.2047 185.661C42.1771 185.371 42.2309 185.079 42.36 184.817C42.4892 184.556 42.6885 184.335 42.9358 184.181L42.4664 182.764C42.0082 182.915 41.6169 183.221 41.3599 183.63C41.1029 184.038 40.9964 184.524 41.0584 185.002C41.0867 185.905 41.3148 186.789 41.7263 187.593C42.4556 189.147 43.6225 190.455 45.0839 191.356C46.4919 192.16 47.7284 192.16 48.4504 191.483C48.6764 191.242 48.8513 190.958 48.9646 190.648C49.0778 190.337 49.1271 190.007 49.1093 189.678C49.1093 189.596 49.1093 189.515 49.1093 189.434H47.936C47.8877 189.771 47.729 190.082 47.4847 190.318Z" fill="url(#paint78_linear_0_1335)"/>
<path d="M80.6527 245.249V252.831L87.431 256.748L95.2653 252.226V244.645" fill="url(#paint79_linear_0_1335)"/>
<path d="M95.2653 244.645L87.431 249.167L80.6527 245.25L88.487 240.728L95.2653 244.645Z" fill="url(#paint80_linear_0_1335)"/>
<path d="M58.1697 235.448V240.015L62.2583 242.38L66.9787 239.654V235.078" fill="url(#paint81_linear_0_1335)"/>
<path d="M66.9787 235.077L62.2583 237.812L58.1697 235.448L62.8901 232.722L66.9787 235.077Z" fill="url(#paint82_linear_0_1335)"/>
<path d="M40.5608 215.835V218.633L43.0609 220.077L45.9491 218.408V215.619" fill="url(#paint83_linear_0_1335)"/>
<path d="M45.9491 215.619L43.0609 217.279L40.5608 215.835L43.449 214.175L45.9491 215.619Z" fill="url(#paint84_linear_0_1335)"/>
<path opacity="0.25" d="M96.7182 262.2L85.7069 268.554L76.1848 263.048L87.1871 256.694L96.7182 262.2Z" fill="url(#paint85_linear_0_1335)"/>
<path opacity="0.25" d="M78.2885 239.157L72.2323 242.65L66.9794 239.627L73.0446 236.125L78.2885 239.157Z" fill="url(#paint86_linear_0_1335)"/>
<path d="M334.428 106.587V103.365L333.345 102.941V107.075" fill="url(#paint87_linear_0_1335)"/>
<path d="M256.97 111.624L262.873 114.729C262.344 114.892 261.895 115.248 261.615 115.725C261.334 116.203 261.242 116.768 261.357 117.31L261.221 117.22L255.517 114.043C255.432 113.533 255.532 113.009 255.798 112.566C256.065 112.122 256.48 111.788 256.97 111.624Z" fill="url(#paint88_linear_0_1335)"/>
<path d="M263.856 115.252L262.873 114.729C262.343 114.892 261.895 115.248 261.614 115.725C261.333 116.203 261.242 116.768 261.356 117.31C261.677 117.518 261.941 117.802 262.124 118.138C262.307 118.474 262.403 118.85 262.403 119.232V128.61V130.903L262.024 130.686C261.759 130.525 261.455 130.44 261.144 130.44C260.834 130.44 260.53 130.525 260.264 130.686C260.037 130.837 259.851 131.041 259.722 131.281C259.593 131.522 259.526 131.79 259.526 132.062C259.526 132.335 259.593 132.603 259.722 132.843C259.851 133.084 260.037 133.288 260.264 133.439L263.252 135.343C263.52 135.499 263.824 135.582 264.134 135.586C264.444 135.59 264.75 135.514 265.022 135.365C265.294 135.216 265.523 135 265.687 134.737C265.852 134.474 265.945 134.173 265.959 133.863V118.691C265.956 117.98 265.759 117.284 265.388 116.678C265.017 116.072 264.488 115.579 263.856 115.252Z" fill="url(#paint89_linear_0_1335)"/>
<path d="M248.586 102.083L248.685 102.029C248.922 101.905 249.185 101.84 249.452 101.84C249.719 101.84 249.983 101.905 250.219 102.029L251.907 102.932C252.935 103.472 253.789 104.292 254.371 105.297L255.346 107.02C255.591 107.439 255.718 107.916 255.716 108.401V109.692C255.716 110.086 255.824 110.472 256.028 110.809C256.231 111.146 256.523 111.422 256.871 111.606L256.97 111.66C256.48 111.824 256.065 112.158 255.798 112.602C255.532 113.045 255.432 113.568 255.517 114.079L254.425 113.474C253.987 113.231 253.623 112.875 253.369 112.443C253.115 112.011 252.981 111.52 252.981 111.019V109.475C252.983 109.066 252.846 108.668 252.593 108.347L251.239 106.659C251.095 106.479 250.918 106.329 250.716 106.217L248.577 105.008C248.245 104.832 247.984 104.549 247.836 104.204C247.675 103.821 247.662 103.391 247.8 102.999C247.939 102.607 248.219 102.28 248.586 102.083Z" fill="url(#paint90_linear_0_1335)"/>
<path opacity="0.32" d="M254.695 105.766C254.131 105.824 253.59 106.019 253.118 106.333C252.646 106.648 252.258 107.073 251.988 107.571" stroke="#484B60" stroke-width="0.5" stroke-miterlimit="10"/>
<path opacity="0.32" d="M256.97 111.624C256.484 111.795 256.072 112.13 255.807 112.571C255.542 113.013 255.439 113.533 255.516 114.043" stroke="#484B60" stroke-width="0.5" stroke-miterlimit="10"/>
<path opacity="0.32" d="M262.764 114.729C262.278 114.903 261.868 115.24 261.603 115.682C261.338 116.125 261.235 116.646 261.311 117.157" stroke="#484B60" stroke-width="0.5" stroke-miterlimit="10"/>
<path opacity="0.32" d="M265.932 122.292C265.469 122.736 264.871 123.014 264.232 123.083C263.594 123.151 262.951 123.007 262.403 122.671" stroke="#484B60" stroke-width="0.5" stroke-miterlimit="10"/>
<path d="M136.315 373.476L116.738 360.949C114.933 359.207 112.226 361.147 112.307 363.882L133.806 377.926C133.535 374.496 135.864 373.621 136.315 373.476Z" fill="url(#paint91_linear_0_1335)"/>
<path d="M143.906 378.314L136.315 373.476C135.828 373.62 133.499 374.496 133.806 377.926L141.55 382.953C141.135 379.586 143.211 378.558 143.906 378.314Z" fill="url(#paint92_linear_0_1335)"/>
<path d="M205.425 351.589L151.352 382.475C151.203 382.563 151.033 382.609 150.86 382.609C150.687 382.609 150.517 382.563 150.368 382.475L143.906 378.341C143.211 378.585 141.135 379.614 141.55 382.989L147.317 386.753C148.386 387.447 149.624 387.835 150.897 387.873C152.171 387.911 153.43 387.599 154.538 386.97L208.205 356.282C208.296 355.307 208.077 354.327 207.577 353.484C207.078 352.641 206.324 351.977 205.425 351.589Z" fill="url(#paint93_linear_0_1335)"/>
<path d="M312.098 290.656L213.935 346.715C214.877 347.032 215.683 347.656 216.226 348.488C216.768 349.32 217.013 350.311 216.923 351.3L314.761 295.404C314.824 294.44 314.607 293.478 314.134 292.635C313.661 291.793 312.954 291.105 312.098 290.656Z" fill="url(#paint94_linear_0_1335)"/>
<path d="M213.936 346.715L205.416 351.589C206.315 351.977 207.069 352.641 207.568 353.484C208.068 354.327 208.287 355.307 208.196 356.282L216.923 351.3C217.014 350.311 216.768 349.321 216.226 348.489C215.684 347.657 214.877 347.032 213.936 346.715Z" fill="url(#paint95_linear_0_1335)"/>
<path d="M321.224 178.973L291.493 163.242C289.797 162.402 286.809 162.962 287.251 167.159L316.585 182.502C317.221 182.827 317.755 183.322 318.126 183.933C318.498 184.543 318.692 185.245 318.688 185.959L318.345 280.729C319.291 281.246 320.34 281.548 321.416 281.614C322.493 281.679 323.57 281.507 324.572 281.108V184.434C324.579 183.302 324.27 182.19 323.678 181.225C323.086 180.26 322.236 179.48 321.224 178.973Z" fill="url(#paint96_linear_0_1335)"/>
<path d="M318.344 280.72V284.844C318.344 285.534 318.161 286.212 317.813 286.808C317.466 287.404 316.967 287.897 316.368 288.238L312.117 290.657C312.984 291.1 313.702 291.788 314.183 292.635C314.664 293.482 314.887 294.451 314.824 295.423L320.14 292.39C321.509 291.614 322.647 290.489 323.44 289.131C324.232 287.772 324.651 286.228 324.653 284.655V281.099C323.64 281.51 322.548 281.69 321.456 281.624C320.364 281.559 319.301 281.25 318.344 280.72Z" fill="url(#paint97_linear_0_1335)"/>
<path opacity="0.32" d="M318.507 259.572C319.389 260.175 320.418 260.531 321.484 260.603C322.551 260.674 323.617 260.458 324.572 259.978" stroke="#484B60" stroke-width="0.5" stroke-miterlimit="10"/>
<path opacity="0.32" d="M318.507 270.133C319.389 270.736 320.418 271.092 321.484 271.163C322.551 271.235 323.617 271.019 324.572 270.539" stroke="#484B60" stroke-width="0.5" stroke-miterlimit="10"/>
<path opacity="0.32" d="M318.507 280.665C319.389 281.269 320.417 281.626 321.483 281.699C322.55 281.772 323.616 281.558 324.572 281.08" stroke="#484B60" stroke-width="0.5" stroke-miterlimit="10"/>
<path opacity="0.32" d="M312.063 290.684C312.063 290.684 315.114 291.586 314.771 295.404" stroke="#484B60" stroke-width="0.5" stroke-miterlimit="10"/>
<path opacity="0.32" d="M304.192 295.187C304.192 295.187 307.243 296.045 306.9 299.899" stroke="#484B60" stroke-width="0.5" stroke-miterlimit="10"/>
<path opacity="0.32" d="M296.25 299.682C296.25 299.682 299.3 300.54 298.957 304.403" stroke="#484B60" stroke-width="0.5" stroke-miterlimit="10"/>
<path opacity="0.32" d="M286.141 305.621C286.141 305.621 289.191 306.479 288.848 310.341" stroke="#484B60" stroke-width="0.5" stroke-miterlimit="10"/>
<path opacity="0.32" d="M275.978 311.56C275.978 311.56 279.029 312.463 278.686 316.271" stroke="#484B60" stroke-width="0.5" stroke-miterlimit="10"/>
<path opacity="0.32" d="M266.763 316.633C266.763 316.633 269.813 317.535 269.47 321.353" stroke="#484B60" stroke-width="0.5" stroke-miterlimit="10"/>
<path opacity="0.32" d="M257.999 321.678C257.999 321.678 261.05 322.535 260.707 326.398" stroke="#484B60" stroke-width="0.5" stroke-miterlimit="10"/>
<path opacity="0.32" d="M249.244 326.714C249.244 326.714 252.295 327.572 251.952 331.435" stroke="#484B60" stroke-width="0.5" stroke-miterlimit="10"/>
<path opacity="0.32" d="M240.48 331.759C240.48 331.759 243.531 332.662 243.188 336.471" stroke="#484B60" stroke-width="0.5" stroke-miterlimit="10"/>
<path opacity="0.32" d="M231.725 336.796C231.725 336.796 234.776 337.653 234.433 341.516" stroke="#484B60" stroke-width="0.5" stroke-miterlimit="10"/>
<path opacity="0.32" d="M222.961 341.841C222.961 341.841 226.012 342.699 225.669 346.552" stroke="#484B60" stroke-width="0.5" stroke-miterlimit="10"/>
<path opacity="0.32" d="M214.206 346.85C214.206 346.85 217.257 347.753 216.914 351.571" stroke="#484B60" stroke-width="0.5" stroke-miterlimit="10"/>
<path opacity="0.32" d="M205.442 351.598C205.442 351.598 208.493 352.455 208.15 356.318" stroke="#484B60" stroke-width="0.5" stroke-miterlimit="10"/>
<path opacity="0.32" d="M196.688 356.634C196.688 356.634 199.739 357.537 199.396 361.355" stroke="#484B60" stroke-width="0.5" stroke-miterlimit="10"/>
<path opacity="0.32" d="M187.924 361.68C187.924 361.68 190.975 362.537 190.632 366.4" stroke="#484B60" stroke-width="0.5" stroke-miterlimit="10"/>
<path opacity="0.32" d="M179.169 366.707C179.169 366.707 182.22 367.564 181.877 371.427" stroke="#484B60" stroke-width="0.5" stroke-miterlimit="10"/>
<path opacity="0.32" d="M170.405 371.761C170.405 371.761 173.456 372.619 173.113 376.482" stroke="#484B60" stroke-width="0.5" stroke-miterlimit="10"/>
<path opacity="0.32" d="M161.65 376.797C161.65 376.797 164.701 377.655 164.358 381.518" stroke="#484B60" stroke-width="0.5" stroke-miterlimit="10"/>
<path opacity="0.32" d="M152.886 381.762C152.886 381.762 155.937 382.619 155.594 386.482" stroke="#484B60" stroke-width="0.5" stroke-miterlimit="10"/>
<path opacity="0.32" d="M297.216 166.22C297.216 166.22 294.093 166.906 294.643 171.013" stroke="#484B60" stroke-width="0.5" stroke-miterlimit="10"/>
<path opacity="0.32" d="M306.846 171.356C306.846 171.356 303.714 172.042 304.265 176.148" stroke="#484B60" stroke-width="0.5" stroke-miterlimit="10"/>
<path opacity="0.32" d="M316.485 176.365C316.485 176.365 313.353 177.051 313.913 181.157" stroke="#484B60" stroke-width="0.5" stroke-miterlimit="10"/>
<path opacity="0.32" d="M324.572 189.569C323.756 190.245 322.75 190.649 321.694 190.727C320.638 190.804 319.584 190.551 318.678 190.003" stroke="#484B60" stroke-width="0.5" stroke-miterlimit="10"/>
<path opacity="0.32" d="M324.572 201.583C323.757 202.26 322.751 202.666 321.694 202.744C320.638 202.822 319.583 202.567 318.678 202.016" stroke="#484B60" stroke-width="0.5" stroke-miterlimit="10"/>
<path opacity="0.32" d="M324.572 213.605C323.756 214.28 322.75 214.685 321.694 214.762C320.638 214.84 319.584 214.587 318.678 214.038" stroke="#484B60" stroke-width="0.5" stroke-miterlimit="10"/>
<path opacity="0.32" d="M324.572 225.618C323.756 226.293 322.75 226.698 321.694 226.775C320.638 226.853 319.584 226.6 318.678 226.051" stroke="#484B60" stroke-width="0.5" stroke-miterlimit="10"/>
<path opacity="0.32" d="M324.572 237.64C323.757 238.318 322.751 238.724 321.694 238.802C320.638 238.879 319.583 238.625 318.678 238.074" stroke="#484B60" stroke-width="0.5" stroke-miterlimit="10"/>
<path opacity="0.32" d="M324.572 249.058C323.756 249.733 322.75 250.137 321.694 250.215C320.638 250.293 319.584 250.04 318.678 249.491" stroke="#484B60" stroke-width="0.5" stroke-miterlimit="10"/>
<path opacity="0.32" d="M144.14 378.242C144.14 378.242 141.008 378.928 141.559 383.034" stroke="#484B60" stroke-width="0.5" stroke-miterlimit="10"/>
<path opacity="0.32" d="M136.441 373.449C136.441 373.449 133.318 374.135 133.869 378.242" stroke="#484B60" stroke-width="0.5" stroke-miterlimit="10"/>
<path opacity="0.32" d="M128.752 368.657C128.752 368.657 125.629 369.343 126.179 373.449" stroke="#484B60" stroke-width="0.5" stroke-miterlimit="10"/>
<path opacity="0.32" d="M121.061 363.864C121.061 363.864 117.929 364.55 118.489 368.657" stroke="#484B60" stroke-width="0.5" stroke-miterlimit="10"/>
<path d="M14.45 327.726V330.118C14.4485 330.191 14.4622 330.263 14.4902 330.33C14.5182 330.397 14.5598 330.457 14.6125 330.508C14.6651 330.558 14.7276 330.596 14.796 330.621C14.8643 330.645 14.9371 330.656 15.0095 330.651C15.2247 330.666 15.4379 330.6 15.6056 330.464C15.7732 330.328 15.8828 330.133 15.9121 329.919V327.058" fill="#423C06"/>
<path d="M14.4948 317.022C14.019 317.08 13.5649 317.254 13.1727 317.53C12.7806 317.805 12.4628 318.174 12.2474 318.602C12.0765 318.924 11.9692 319.277 11.9315 319.64C11.9086 319.851 11.8118 320.047 11.6583 320.194C11.5047 320.341 11.3043 320.429 11.0922 320.443C10.9252 320.444 10.7589 320.462 10.5957 320.497C10.2001 320.579 9.82621 320.743 9.49826 320.979C9.17031 321.215 8.89568 321.517 8.69222 321.867C8.48877 322.216 8.36104 322.603 8.31735 323.005C8.27365 323.407 8.31497 323.813 8.43861 324.198C8.49667 324.353 8.50619 324.523 8.46591 324.684C8.42562 324.845 8.33743 324.99 8.21297 325.1C7.97758 325.288 7.78788 325.527 7.65813 325.799C7.52839 326.071 7.46196 326.369 7.46384 326.671C7.46408 326.951 7.5224 327.227 7.63511 327.483C7.74781 327.739 7.91245 327.969 8.11861 328.159C8.32476 328.348 8.56795 328.492 8.83277 328.582C9.09759 328.673 9.37827 328.707 9.65707 328.683C9.48009 328.487 9.3438 328.258 9.25608 328.009C9.16836 327.76 9.13097 327.496 9.14609 327.232C9.1612 326.969 9.22851 326.711 9.34412 326.473C9.45972 326.236 9.62132 326.024 9.81953 325.849C9.96359 325.733 10.0685 325.576 10.1202 325.398C10.1719 325.221 10.1677 325.032 10.1084 324.857V324.748C10.0396 324.501 10.0032 324.246 10.0001 323.99C9.99972 323.336 10.2235 322.702 10.634 322.193C11.0446 321.683 11.6172 321.33 12.2565 321.192C12.4577 321.145 12.6636 321.121 12.8702 321.12H13.0507C13.1256 321.125 13.2007 321.114 13.2712 321.089C13.3418 321.063 13.4062 321.023 13.4606 320.972C13.5149 320.92 13.5578 320.857 13.5867 320.788C13.6156 320.719 13.6298 320.644 13.6284 320.569C13.6284 319.808 13.9308 319.078 14.469 318.54C15.0073 318.002 15.7373 317.699 16.4985 317.699H16.67C16.3743 317.442 16.0282 317.248 15.6537 317.132C15.2792 317.015 14.8845 316.978 14.4948 317.022Z" fill="#4A6314"/>
<path d="M22.4465 324.847C22.3464 324.463 22.1414 324.115 21.8545 323.841C21.5676 323.567 21.21 323.378 20.8219 323.295C20.7369 323.274 20.6621 323.223 20.6108 323.152C20.5596 323.081 20.5352 322.994 20.5421 322.907C20.5644 322.559 20.5148 322.209 20.3963 321.881C20.2778 321.552 20.0931 321.252 19.8535 320.998C19.6139 320.744 19.3247 320.542 19.0037 320.405C18.6827 320.267 18.337 320.197 17.9878 320.199C17.7622 320.199 17.6539 319.829 17.6539 319.676C17.6595 319.21 17.531 318.753 17.2838 318.358C16.732 318.564 16.2363 318.897 15.8366 319.33C15.4368 319.762 15.1442 320.283 14.9823 320.849C14.6303 322.726 12.9425 321.165 12.1934 322.654C11.4442 324.143 11.9406 324.983 11.2908 325.813C10.6409 326.644 10.3882 326.86 10.8305 328.241C10.8249 328.256 10.8249 328.272 10.8305 328.286C11.2423 328.22 11.6641 328.31 12.0128 328.539C12.4328 328.818 12.926 328.965 13.4299 328.963C13.9584 328.963 14.4745 328.802 14.9101 328.503C15.119 328.349 15.3623 328.25 15.6188 328.212C15.8752 328.174 16.137 328.2 16.3813 328.286C16.6006 328.369 16.8329 328.412 17.0672 328.413C17.3339 328.413 17.598 328.36 17.8443 328.258C18.0906 328.156 18.3142 328.006 18.5023 327.817C18.6932 327.61 18.9325 327.454 19.1988 327.362C19.4651 327.271 19.7499 327.247 20.0276 327.293C20.1566 327.307 20.2867 327.307 20.4157 327.293C20.7212 327.3 21.0243 327.237 21.3022 327.11C21.5802 326.983 21.826 326.795 22.0212 326.56C22.2164 326.325 22.356 326.049 22.4296 325.753C22.5033 325.456 22.5091 325.147 22.4465 324.847Z" fill="#C1D68E"/>
<path d="M11.3271 325.795C11.9409 324.965 11.4535 324.107 12.2297 322.636C13.0059 321.165 14.6666 322.726 15.0186 320.831C15.1806 320.265 15.4732 319.744 15.8729 319.311C16.2726 318.879 16.7684 318.546 17.3202 318.34C17.1473 318.071 16.9342 317.831 16.6884 317.627C16.298 317.605 15.9073 317.663 15.5401 317.797C15.1729 317.931 14.837 318.139 14.553 318.408C14.269 318.677 14.043 319 13.8887 319.36C13.7344 319.719 13.6551 320.106 13.6558 320.497C13.6572 320.572 13.643 320.646 13.6141 320.716C13.5852 320.785 13.5423 320.847 13.4879 320.899C13.4336 320.951 13.3692 320.991 13.2986 321.016C13.2281 321.042 13.153 321.053 13.0781 321.048H12.8976C12.691 321.049 12.4851 321.073 12.2839 321.12C11.6446 321.258 11.072 321.611 10.6614 322.12C10.2509 322.629 10.0271 323.264 10.0274 323.918C10.0306 324.174 10.067 324.429 10.1358 324.676V324.784C10.1951 324.959 10.1993 325.148 10.1476 325.326C10.0959 325.504 9.99098 325.661 9.84693 325.777C9.64871 325.951 9.48712 326.164 9.37151 326.401C9.2559 326.638 9.18859 326.896 9.17348 327.16C9.15837 327.424 9.19575 327.688 9.28347 327.937C9.37119 328.186 9.50749 328.415 9.68447 328.611C9.93605 328.588 10.181 328.517 10.4065 328.403C10.5609 328.329 10.725 328.278 10.8939 328.25C10.8884 328.235 10.8884 328.219 10.8939 328.205C10.4065 326.842 10.7134 326.616 11.3271 325.795Z" fill="#8AAD4D"/>
<path opacity="0.68" d="M32.1133 325.569L24.7032 346.743L0 332.059L30.1006 325.208" fill="url(#paint98_linear_0_1335)"/>
<path d="M29.1527 311.958V326.219C29.6105 326.572 30.1723 326.763 30.7502 326.763C31.3282 326.763 31.8899 326.572 32.3478 326.219V311.958" fill="#423C06"/>
<path d="M46.0212 295.686C45.628 293.456 44.7767 291.333 43.5211 289.449L33.2319 273.148C33.4034 272.544 33.4846 272.165 33.4846 272.165L44.7125 289.945C46.6833 292.922 47.6327 296.46 47.4177 300.023C47.2027 303.587 45.835 306.985 43.5207 309.703C41.2064 312.422 38.0709 314.315 34.5871 315.096C31.1033 315.877 27.4599 315.505 24.2062 314.035C26.9312 315.043 29.8765 315.301 32.7355 314.784C37.0283 314.01 40.8386 311.564 43.3297 307.983C45.8207 304.403 46.7887 299.98 46.0212 295.686Z" fill="#C1D68E"/>
<path d="M19.793 311.11C23.0459 312.198 26.5573 312.243 29.8372 311.239C33.117 310.236 36.0017 308.233 38.0887 305.511C40.1756 302.789 41.3608 299.483 41.4788 296.055C41.5968 292.627 40.6417 289.248 38.7469 286.389L32.1491 275.946C32.5603 275.036 32.9071 274.098 33.1871 273.139L43.4944 289.449C45.4044 292.332 46.3578 295.744 46.2192 299.2C46.0806 302.656 44.8571 305.98 42.7222 308.702C40.5874 311.423 37.6497 313.403 34.3261 314.36C31.0025 315.317 27.4618 315.203 24.2065 314.035C22.5884 313.302 21.0983 312.315 19.793 311.11Z" fill="#8AAD4D"/>
<path d="M38.7736 286.389C40.6745 289.247 41.6344 292.628 41.519 296.059C41.4037 299.49 40.2188 302.798 38.1303 305.523C36.0417 308.247 33.1539 310.25 29.8707 311.252C26.5876 312.254 23.0734 312.204 19.8197 311.11C17.7988 309.241 16.2797 306.895 15.4018 304.286C14.5238 301.677 14.3151 298.89 14.7949 296.179C15.2746 293.469 16.4274 290.922 18.1475 288.773C19.8676 286.624 22.0998 284.942 24.6394 283.88C28.6558 282.328 30.9574 278.762 32.23 275.964L38.8277 286.407L38.7736 286.389Z" fill="#C1D68E"/>
<path opacity="0.68" d="M46.9874 342.528L43.9729 351.139L33.9273 345.173L46.1661 342.384" fill="url(#paint99_linear_0_1335)"/>
<path d="M45.7779 336.996V342.799C45.9648 342.941 46.193 343.018 46.4277 343.018C46.6625 343.018 46.8907 342.941 47.0776 342.799V336.996" fill="#423C06"/>
<path d="M52.6459 330.38C52.484 329.474 52.1368 328.61 51.6261 327.844L47.4382 321.21C47.478 321.079 47.5111 320.947 47.5374 320.813L52.1134 328.033C52.6106 328.799 52.9426 329.66 53.0882 330.561C53.3981 332.308 53.0019 334.107 51.9865 335.562C50.9711 337.018 49.4197 338.01 47.6728 338.323C46.3374 338.566 44.9594 338.39 43.7286 337.817C44.8354 338.229 46.0326 338.335 47.1945 338.124C48.9431 337.818 50.4989 336.831 51.5208 335.379C52.5428 333.927 52.9474 332.13 52.6459 330.38Z" fill="#C1D68E"/>
<path d="M41.9779 336.653C43.0442 337.009 44.1822 337.096 45.2903 336.906C46.3856 336.711 47.4153 336.247 48.2864 335.556C49.1575 334.864 49.8426 333.966 50.2797 332.943C50.7168 331.92 50.8922 330.804 50.7901 329.697C50.688 328.589 50.3116 327.524 49.6948 326.598L46.9871 322.356C47.155 321.984 47.2967 321.601 47.4113 321.21L51.5992 327.844C52.2163 328.769 52.593 329.833 52.6952 330.94C52.7975 332.048 52.622 333.163 52.1848 334.185C51.7475 335.208 51.0622 336.105 50.1909 336.796C49.3196 337.487 48.2898 337.949 47.1947 338.142C46.2658 338.351 45.2993 338.324 44.3833 338.064C43.4674 337.804 42.6311 337.319 41.9508 336.653H41.9779Z" fill="#8AAD4D"/>
<path d="M49.6948 326.599C50.3055 327.524 50.6768 328.586 50.7757 329.69C50.8745 330.794 50.6977 331.906 50.2611 332.925C49.8246 333.944 49.1419 334.838 48.2743 335.529C47.4067 336.219 46.3814 336.683 45.2903 336.879C44.1822 337.069 43.0442 336.983 41.9779 336.626C41.1569 335.866 40.5398 334.911 40.1832 333.851C39.8266 332.79 39.7418 331.657 39.9367 330.555C40.1316 329.453 40.5999 328.417 41.2987 327.543C41.9975 326.669 42.9044 325.984 43.9365 325.552C45.3479 324.924 46.4564 323.766 47.0232 322.329L49.7309 326.571L49.6948 326.599Z" fill="#C1D68E"/>
<path opacity="0.68" d="M355.051 339.007L348.49 357.78L326.575 344.765L353.264 338.691" fill="url(#paint100_linear_0_1335)"/>
<path d="M352.425 326.94V339.576C352.831 339.889 353.33 340.059 353.842 340.059C354.355 340.059 354.854 339.889 355.26 339.576V326.94" fill="#423C06"/>
<path d="M367.372 312.553C367.023 310.577 366.267 308.696 365.151 307.029L356.008 292.588C356.099 292.291 356.175 291.99 356.234 291.686L366.162 307.453C367.893 310.092 368.722 313.221 368.525 316.37C368.329 319.52 367.118 322.521 365.073 324.924C363.028 327.328 360.26 329.004 357.183 329.703C354.105 330.401 350.885 330.084 348.003 328.799C350.41 329.676 353.006 329.904 355.529 329.46C358.053 329.016 360.415 327.915 362.378 326.268C364.341 324.622 365.836 322.487 366.712 320.08C367.589 317.672 367.816 315.076 367.372 312.553Z" fill="#C1D68E"/>
<path d="M344.13 326.182C346.451 326.975 348.936 327.165 351.351 326.732C353.737 326.307 355.979 325.294 357.876 323.785C359.773 322.277 361.264 320.32 362.216 318.091C363.168 315.863 363.55 313.432 363.328 311.019C363.107 308.605 362.288 306.285 360.945 304.267L355.088 295.007C355.45 294.2 355.752 293.368 355.99 292.516L365.133 306.957C367.364 309.791 368.439 313.365 368.142 316.959C367.846 320.554 366.201 323.903 363.536 326.334C360.872 328.765 357.387 330.098 353.78 330.065C350.174 330.031 346.713 328.634 344.094 326.155L344.13 326.182Z" fill="#8AAD4D"/>
<path d="M360.955 304.267C363.282 306.118 364.927 308.692 365.627 311.582C366.328 314.472 366.045 317.513 364.823 320.224C363.601 322.935 361.51 325.161 358.88 326.55C356.251 327.939 353.234 328.412 350.305 327.893C347.377 327.375 344.706 325.894 342.713 323.687C340.721 321.479 339.522 318.67 339.305 315.705C339.088 312.739 339.867 309.785 341.518 307.312C343.168 304.838 345.596 302.986 348.418 302.047C351.983 300.666 354.032 297.534 355.142 295.025L361 304.285L360.955 304.267Z" fill="#C1D68E"/>
<path opacity="0.68" d="M311.693 343.944L307.406 356.201L293.109 347.699L310.529 343.736" fill="url(#paint101_linear_0_1335)"/>
<path d="M309.978 336.065V344.314C310.242 344.52 310.568 344.632 310.903 344.632C311.238 344.632 311.563 344.52 311.828 344.314V336.065" fill="#423C06"/>
<path d="M319.743 326.651C319.517 325.359 319.022 324.129 318.29 323.041L312.315 313.609C312.415 313.257 312.469 313.041 312.469 313.041L318.967 323.321C319.699 324.409 320.194 325.639 320.42 326.931C320.861 329.419 320.296 331.981 318.849 334.052C317.402 336.124 315.191 337.536 312.703 337.978C310.8 338.323 308.837 338.074 307.08 337.265C308.657 337.85 310.363 338 312.017 337.699C313.25 337.481 314.428 337.022 315.483 336.349C316.539 335.676 317.451 334.801 318.169 333.775C318.886 332.749 319.395 331.592 319.665 330.37C319.935 329.148 319.962 327.884 319.743 326.651Z" fill="#C1D68E"/>
<path d="M304.562 335.577C306.13 336.105 307.809 336.215 309.432 335.898C311.056 335.581 312.57 334.847 313.824 333.768C315.078 332.69 316.031 331.303 316.587 329.745C317.144 328.187 317.286 326.511 317 324.882C316.767 323.592 316.272 322.363 315.546 321.272L311.738 315.261C311.971 314.733 312.17 314.19 312.333 313.636L318.299 323.068C319.031 324.156 319.526 325.386 319.752 326.678C320.193 329.166 319.628 331.728 318.181 333.799C316.734 335.871 314.523 337.283 312.035 337.725C310.381 338.026 308.675 337.877 307.098 337.292C306.168 336.858 305.312 336.279 304.562 335.577Z" fill="#8AAD4D"/>
<path d="M315.546 321.272C316.424 322.588 316.959 324.102 317.105 325.678C317.25 327.253 317.001 328.84 316.379 330.295C315.757 331.75 314.783 333.027 313.544 334.01C312.305 334.994 310.84 335.654 309.282 335.929C308.399 336.26 307.446 336.364 306.512 336.232C305.577 336.1 304.691 335.736 303.933 335.173C303.176 334.61 302.571 333.867 302.175 333.01C301.779 332.154 301.603 331.212 301.665 330.27C301.287 328.141 301.643 325.947 302.677 324.048C303.71 322.149 305.358 320.657 307.351 319.819C309.357 318.921 310.934 317.276 311.746 315.234L315.564 321.272H315.546Z" fill="#C1D68E"/>
<path opacity="0.68" d="M333.589 362.7L328.264 377.926L310.492 367.366L332.145 362.438" fill="url(#paint102_linear_0_1335)"/>
<path d="M331.458 352.907V363.16C331.788 363.415 332.192 363.554 332.609 363.554C333.026 363.554 333.431 363.415 333.76 363.16V352.907" fill="#423C06"/>
<path d="M343.598 341.209C343.314 339.597 342.7 338.06 341.793 336.697L334.383 324.963C334.509 324.521 334.564 324.25 334.564 324.25L342.687 337.039C344.115 339.183 344.806 341.733 344.654 344.305C344.503 346.876 343.517 349.327 341.846 351.288C340.176 353.248 337.911 354.611 335.397 355.168C332.882 355.726 330.254 355.448 327.912 354.378C329.867 355.094 331.977 355.282 334.028 354.923C336.079 354.564 338 353.67 339.595 352.331C341.191 350.993 342.405 349.258 343.116 347.3C343.827 345.343 344.009 343.233 343.643 341.182L343.598 341.209Z" fill="#C1D68E"/>
<path d="M324.735 352.266C327.075 353.054 329.602 353.092 331.964 352.373C334.327 351.654 336.405 350.215 337.909 348.256C339.412 346.298 340.266 343.919 340.351 341.451C340.436 338.984 339.748 336.551 338.382 334.494L333.643 326.994C333.937 326.337 334.188 325.662 334.393 324.972L341.803 336.706C343.185 338.784 343.876 341.245 343.776 343.739C343.677 346.233 342.791 348.632 341.247 350.593C339.702 352.554 337.578 353.977 335.177 354.658C332.775 355.339 330.22 355.244 327.876 354.387C326.723 353.85 325.663 353.134 324.735 352.266Z" fill="#8AAD4D"/>
<path d="M338.382 334.521C339.292 335.883 339.907 337.42 340.187 339.034C340.888 340.951 340.992 343.036 340.485 345.013C339.978 346.99 338.884 348.767 337.346 350.11C335.809 351.453 333.901 352.298 331.874 352.535C329.847 352.772 327.795 352.389 325.99 351.437C324.184 350.484 322.71 349.007 321.761 347.2C320.811 345.393 320.432 343.341 320.672 341.314C320.913 339.287 321.762 337.381 323.107 335.846C324.453 334.311 326.232 333.22 328.21 332.716C331.098 331.606 332.723 329.034 333.625 327.03L338.373 334.53L338.382 334.521Z" fill="#C1D68E"/>
<defs>
<linearGradient id="paint0_linear_0_1335" x1="68118.9" y1="56856.2" x2="45957.9" y2="45709.6" gradientUnits="userSpaceOnUse">
<stop stop-color="#19405E"/>
<stop offset="1" stop-color="#246F7E"/>
</linearGradient>
<linearGradient id="paint1_linear_0_1335" x1="263.532" y1="480.539" x2="348.165" y2="122.708" gradientUnits="userSpaceOnUse">
<stop stop-color="#9CBC6A"/>
<stop offset="0.85" stop-color="#97C7BA"/>
</linearGradient>
<linearGradient id="paint2_linear_0_1335" x1="63463.2" y1="67041.4" x2="112522" y2="44238.2" gradientUnits="userSpaceOnUse">
<stop stop-color="#8ACCD4"/>
<stop offset="1" stop-color="#C3EBC4"/>
</linearGradient>
<linearGradient id="paint3_linear_0_1335" x1="12728.9" y1="11043.8" x2="7534.34" y2="8945.93" gradientUnits="userSpaceOnUse">
<stop stop-color="#19405E"/>
<stop offset="1" stop-color="#246F7E"/>
</linearGradient>
<linearGradient id="paint4_linear_0_1335" x1="10092.2" y1="10465.4" x2="10656.3" y2="10465.4" gradientUnits="userSpaceOnUse">
<stop stop-color="#19405E"/>
<stop offset="1" stop-color="#246F7E"/>
</linearGradient>
<linearGradient id="paint5_linear_0_1335" x1="6995.96" y1="7135.34" x2="7392.87" y2="7135.34" gradientUnits="userSpaceOnUse">
<stop stop-color="#8ACCD4"/>
<stop offset="1" stop-color="#C3EBC4"/>
</linearGradient>
<linearGradient id="paint6_linear_0_1335" x1="211.77" y1="188.901" x2="217.185" y2="156.716" gradientUnits="userSpaceOnUse">
<stop stop-color="#F8C696"/>
<stop offset="1" stop-color="#E9426B"/>
</linearGradient>
<linearGradient id="paint7_linear_0_1335" x1="52410.3" y1="34327.5" x2="50185.3" y2="60854.8" gradientUnits="userSpaceOnUse">
<stop stop-color="#19405E"/>
<stop offset="1" stop-color="#246F7E"/>
</linearGradient>
<linearGradient id="paint8_linear_0_1335" x1="8992.91" y1="9941.55" x2="9557.02" y2="9941.55" gradientUnits="userSpaceOnUse">
<stop stop-color="#19405E"/>
<stop offset="1" stop-color="#246F7E"/>
</linearGradient>
<linearGradient id="paint9_linear_0_1335" x1="6064.75" y1="6663.23" x2="6461.65" y2="6663.23" gradientUnits="userSpaceOnUse">
<stop stop-color="#8ACCD4"/>
<stop offset="1" stop-color="#C3EBC4"/>
</linearGradient>
<linearGradient id="paint10_linear_0_1335" x1="6310.83" y1="5210.17" x2="6407.56" y2="4522.71" gradientUnits="userSpaceOnUse">
<stop stop-color="#F8C696"/>
<stop offset="1" stop-color="#E9426B"/>
</linearGradient>
<linearGradient id="paint11_linear_0_1335" x1="10259.5" y1="12733.5" x2="10823.6" y2="12733.5" gradientUnits="userSpaceOnUse">
<stop stop-color="#19405E"/>
<stop offset="1" stop-color="#246F7E"/>
</linearGradient>
<linearGradient id="paint12_linear_0_1335" x1="6972.49" y1="8611.61" x2="7369.17" y2="8611.61" gradientUnits="userSpaceOnUse">
<stop stop-color="#8ACCD4"/>
<stop offset="1" stop-color="#C3EBC4"/>
</linearGradient>
<linearGradient id="paint13_linear_0_1335" x1="7226.2" y1="7339.51" x2="7269.17" y2="6608.12" gradientUnits="userSpaceOnUse">
<stop stop-color="#F8C696"/>
<stop offset="1" stop-color="#E9426B"/>
</linearGradient>
<linearGradient id="paint14_linear_0_1335" x1="201.932" y1="184.795" x2="224.315" y2="165.218" gradientUnits="userSpaceOnUse">
<stop stop-color="#F8C696" stop-opacity="0"/>
<stop offset="1" stop-color="#E9426B"/>
</linearGradient>
<linearGradient id="paint15_linear_0_1335" x1="14588.9" y1="8499.12" x2="15777" y2="7477.62" gradientUnits="userSpaceOnUse">
<stop stop-color="#F8C696" stop-opacity="0"/>
<stop offset="1" stop-color="#E9426B"/>
</linearGradient>
<linearGradient id="paint16_linear_0_1335" x1="16713.1" y1="12024" x2="17851.4" y2="11045.7" gradientUnits="userSpaceOnUse">
<stop stop-color="#F8C696" stop-opacity="0"/>
<stop offset="1" stop-color="#E9426B"/>
</linearGradient>
<linearGradient id="paint17_linear_0_1335" x1="196.626" y1="182.407" x2="216.23" y2="182.407" gradientUnits="userSpaceOnUse">
<stop stop-color="white" stop-opacity="0"/>
<stop offset="0.07" stop-color="white" stop-opacity="0.15"/>
<stop offset="0.16" stop-color="white" stop-opacity="0.35"/>
<stop offset="0.26" stop-color="white" stop-opacity="0.52"/>
<stop offset="0.37" stop-color="white" stop-opacity="0.67"/>
<stop offset="0.47" stop-color="white" stop-opacity="0.79"/>
<stop offset="0.59" stop-color="white" stop-opacity="0.88"/>
<stop offset="0.7" stop-color="white" stop-opacity="0.95"/>
<stop offset="0.84" stop-color="white" stop-opacity="0.99"/>
<stop offset="1" stop-color="white"/>
</linearGradient>
<linearGradient id="paint18_linear_0_1335" x1="194.058" y1="191.038" x2="202.452" y2="191.038" gradientUnits="userSpaceOnUse">
<stop stop-color="white" stop-opacity="0"/>
<stop offset="0.18" stop-color="white" stop-opacity="0.21"/>
<stop offset="0.48" stop-color="white" stop-opacity="0.55"/>
<stop offset="0.73" stop-color="white" stop-opacity="0.79"/>
<stop offset="0.91" stop-color="white" stop-opacity="0.94"/>
<stop offset="1" stop-color="white"/>
</linearGradient>
<linearGradient id="paint19_linear_0_1335" x1="6173.2" y1="7588.71" x2="6478.62" y2="7588.71" gradientUnits="userSpaceOnUse">
<stop stop-color="white" stop-opacity="0"/>
<stop offset="0.07" stop-color="white" stop-opacity="0.15"/>
<stop offset="0.16" stop-color="white" stop-opacity="0.35"/>
<stop offset="0.26" stop-color="white" stop-opacity="0.52"/>
<stop offset="0.37" stop-color="white" stop-opacity="0.67"/>
<stop offset="0.47" stop-color="white" stop-opacity="0.79"/>
<stop offset="0.59" stop-color="white" stop-opacity="0.88"/>
<stop offset="0.7" stop-color="white" stop-opacity="0.95"/>
<stop offset="0.84" stop-color="white" stop-opacity="0.99"/>
<stop offset="1" stop-color="white"/>
</linearGradient>
<linearGradient id="paint20_linear_0_1335" x1="2569.22" y1="3286.56" x2="2621.6" y2="3286.56" gradientUnits="userSpaceOnUse">
<stop stop-color="white" stop-opacity="0"/>
<stop offset="0.18" stop-color="white" stop-opacity="0.21"/>
<stop offset="0.48" stop-color="white" stop-opacity="0.55"/>
<stop offset="0.73" stop-color="white" stop-opacity="0.79"/>
<stop offset="0.91" stop-color="white" stop-opacity="0.94"/>
<stop offset="1" stop-color="white"/>
</linearGradient>
<linearGradient id="paint21_linear_0_1335" x1="1247.13" y1="1629.29" x2="1259.04" y2="1629.29" gradientUnits="userSpaceOnUse">
<stop stop-color="white" stop-opacity="0"/>
<stop offset="0.18" stop-color="white" stop-opacity="0.21"/>
<stop offset="0.48" stop-color="white" stop-opacity="0.55"/>
<stop offset="0.73" stop-color="white" stop-opacity="0.79"/>
<stop offset="0.91" stop-color="white" stop-opacity="0.94"/>
<stop offset="1" stop-color="white"/>
</linearGradient>
<linearGradient id="paint22_linear_0_1335" x1="5358.53" y1="5354.6" x2="5663.95" y2="5354.6" gradientUnits="userSpaceOnUse">
<stop stop-color="white" stop-opacity="0"/>
<stop offset="0.07" stop-color="white" stop-opacity="0.15"/>
<stop offset="0.16" stop-color="white" stop-opacity="0.35"/>
<stop offset="0.26" stop-color="white" stop-opacity="0.52"/>
<stop offset="0.37" stop-color="white" stop-opacity="0.67"/>
<stop offset="0.47" stop-color="white" stop-opacity="0.79"/>
<stop offset="0.59" stop-color="white" stop-opacity="0.88"/>
<stop offset="0.7" stop-color="white" stop-opacity="0.95"/>
<stop offset="0.84" stop-color="white" stop-opacity="0.99"/>
<stop offset="1" stop-color="white"/>
</linearGradient>
<linearGradient id="paint23_linear_0_1335" x1="2213.48" y1="2344.09" x2="2265.86" y2="2344.09" gradientUnits="userSpaceOnUse">
<stop stop-color="white" stop-opacity="0"/>
<stop offset="0.18" stop-color="white" stop-opacity="0.21"/>
<stop offset="0.48" stop-color="white" stop-opacity="0.55"/>
<stop offset="0.73" stop-color="white" stop-opacity="0.79"/>
<stop offset="0.91" stop-color="white" stop-opacity="0.94"/>
<stop offset="1" stop-color="white"/>
</linearGradient>
<linearGradient id="paint24_linear_0_1335" x1="36525.6" y1="16334.6" x2="257625" y2="51016" gradientUnits="userSpaceOnUse">
<stop stop-color="#CFD7FC"/>
<stop offset="0.07" stop-color="#DCE2FD"/>
<stop offset="0.2" stop-color="#EFF2FE"/>
<stop offset="0.33" stop-color="#FBFCFF"/>
<stop offset="0.46" stop-color="white"/>
<stop offset="0.87" stop-color="#E4E8FE"/>
<stop offset="1" stop-color="#DAE0FD"/>
</linearGradient>
<linearGradient id="paint25_linear_0_1335" x1="139.663" y1="128.899" x2="223.196" y2="128.899" gradientUnits="userSpaceOnUse">
<stop offset="0.21" stop-color="#BC5BAA"/>
<stop offset="1" stop-color="#201E76"/>
</linearGradient>
<linearGradient id="paint26_linear_0_1335" x1="21982.1" y1="20013.7" x2="23580.2" y2="10590.3" gradientUnits="userSpaceOnUse">
<stop offset="0.21" stop-color="#BC5BAA"/>
<stop offset="1" stop-color="#201E76"/>
</linearGradient>
<linearGradient id="paint27_linear_0_1335" x1="263.595" y1="94.899" x2="170.053" y2="94.899" gradientUnits="userSpaceOnUse">
<stop stop-color="#EDEEFC"/>
<stop offset="1" stop-color="white"/>
</linearGradient>
<linearGradient id="paint28_linear_0_1335" x1="41780.8" y1="8032.57" x2="51476.3" y2="8032.57" gradientUnits="userSpaceOnUse">
<stop stop-color="#EDEEFC"/>
<stop offset="1" stop-color="white"/>
</linearGradient>
<linearGradient id="paint29_linear_0_1335" x1="2578.67" y1="1158.74" x2="2607.28" y2="1158.74" gradientUnits="userSpaceOnUse">
<stop stop-color="#EDEEFC"/>
<stop offset="1" stop-color="white"/>
</linearGradient>
<linearGradient id="paint30_linear_0_1335" x1="-2100.42" y1="1119.75" x2="-2129.02" y2="1119.75" gradientUnits="userSpaceOnUse">
<stop stop-color="#8ACCD4"/>
<stop offset="1" stop-color="#C3EBC4"/>
</linearGradient>
<linearGradient id="paint31_linear_0_1335" x1="2380.82" y1="578.872" x2="2404.99" y2="578.872" gradientUnits="userSpaceOnUse">
<stop stop-color="#EDEEFC"/>
<stop offset="1" stop-color="white"/>
</linearGradient>
<linearGradient id="paint32_linear_0_1335" x1="237.763" y1="208.171" x2="215.731" y2="20.9249" gradientUnits="userSpaceOnUse">
<stop stop-color="#F8C696"/>
<stop offset="0.1" stop-color="#F8C395" stop-opacity="0.98"/>
<stop offset="0.23" stop-color="#F7BB93" stop-opacity="0.92"/>
<stop offset="0.37" stop-color="#F5AF8E" stop-opacity="0.82"/>
<stop offset="0.51" stop-color="#F39C88" stop-opacity="0.69"/>
<stop offset="0.66" stop-color="#F18581" stop-opacity="0.51"/>
<stop offset="0.82" stop-color="#ED6978" stop-opacity="0.29"/>
<stop offset="0.97" stop-color="#EA486D" stop-opacity="0.04"/>
<stop offset="1" stop-color="#E9426B" stop-opacity="0"/>
</linearGradient>
<linearGradient id="paint33_linear_0_1335" x1="22573.8" y1="20930.1" x2="22197.1" y2="20274.6" gradientUnits="userSpaceOnUse">
<stop stop-color="#F8C696"/>
<stop offset="1" stop-color="#E9426B"/>
</linearGradient>
<linearGradient id="paint34_linear_0_1335" x1="20120.4" y1="20083.8" x2="19810.2" y2="19544.1" gradientUnits="userSpaceOnUse">
<stop stop-color="#F8C696"/>
<stop offset="1" stop-color="#E9426B"/>
</linearGradient>
<linearGradient id="paint35_linear_0_1335" x1="-26041.7" y1="3743.63" x2="-36371.5" y2="6604.05" gradientUnits="userSpaceOnUse">
<stop stop-color="#F8C696"/>
<stop offset="1" stop-color="#E9426B"/>
</linearGradient>
<linearGradient id="paint36_linear_0_1335" x1="21980.6" y1="14278.6" x2="20038.5" y2="12131.3" gradientUnits="userSpaceOnUse">
<stop stop-color="#F8C696"/>
<stop offset="1" stop-color="#E9426B"/>
</linearGradient>
<linearGradient id="paint37_linear_0_1335" x1="-7691.01" y1="1765.76" x2="-11248" y2="2453.32" gradientUnits="userSpaceOnUse">
<stop stop-color="#F8C696"/>
<stop offset="1" stop-color="#E9426B"/>
</linearGradient>
<linearGradient id="paint38_linear_0_1335" x1="28483.7" y1="18415.6" x2="26575" y2="16837.4" gradientUnits="userSpaceOnUse">
<stop stop-color="#F8C696"/>
<stop offset="1" stop-color="#E9426B"/>
</linearGradient>
<linearGradient id="paint39_linear_0_1335" x1="-10657.6" y1="1316.81" x2="-15128.8" y2="2696.73" gradientUnits="userSpaceOnUse">
<stop stop-color="#F8C696"/>
<stop offset="1" stop-color="#E9426B"/>
</linearGradient>
<linearGradient id="paint40_linear_0_1335" x1="4380.78" y1="3624.58" x2="4122.76" y2="3252.76" gradientUnits="userSpaceOnUse">
<stop stop-color="#F8C696"/>
<stop offset="1" stop-color="#E9426B"/>
</linearGradient>
<linearGradient id="paint41_linear_0_1335" x1="-3120.95" y1="462.352" x2="-3174.74" y2="462.352" gradientUnits="userSpaceOnUse">
<stop stop-color="#F8C696"/>
<stop offset="1" stop-color="#E9426B"/>
</linearGradient>
<linearGradient id="paint42_linear_0_1335" x1="-3056.5" y1="433.805" x2="-3110.29" y2="433.805" gradientUnits="userSpaceOnUse">
<stop stop-color="#F8C696"/>
<stop offset="1" stop-color="#E9426B"/>
</linearGradient>
<linearGradient id="paint43_linear_0_1335" x1="-931.134" y1="868.939" x2="-986.298" y2="727.772" gradientUnits="userSpaceOnUse">
<stop stop-color="#F8C696"/>
<stop offset="1" stop-color="#E9426B"/>
</linearGradient>
<linearGradient id="paint44_linear_0_1335" x1="1078.94" y1="-37.5087" x2="1073.21" y2="-42.1371" gradientUnits="userSpaceOnUse">
<stop stop-color="#F8C696"/>
<stop offset="1" stop-color="#E9426B"/>
</linearGradient>
<linearGradient id="paint45_linear_0_1335" x1="1258.08" y1="487.664" x2="1250.71" y2="481.711" gradientUnits="userSpaceOnUse">
<stop stop-color="#F8C696"/>
<stop offset="1" stop-color="#E9426B"/>
</linearGradient>
<linearGradient id="paint46_linear_0_1335" x1="747.517" y1="-31.7491" x2="757.66" y2="-48.8776" gradientUnits="userSpaceOnUse">
<stop stop-color="#F8C696"/>
<stop offset="1" stop-color="#E9426B"/>
</linearGradient>
<linearGradient id="paint47_linear_0_1335" x1="12029.3" y1="20126.5" x2="12005.6" y2="20166.4" gradientUnits="userSpaceOnUse">
<stop stop-color="#F8C696"/>
<stop offset="1" stop-color="#E9426B"/>
</linearGradient>
<linearGradient id="paint48_linear_0_1335" x1="4445.62" y1="17440.7" x2="4419.08" y2="17485.4" gradientUnits="userSpaceOnUse">
<stop stop-color="#F8C696"/>
<stop offset="1" stop-color="#E9426B"/>
</linearGradient>
<linearGradient id="paint49_linear_0_1335" x1="1008.93" y1="16015.1" x2="1077.21" y2="16062.3" gradientUnits="userSpaceOnUse">
<stop stop-color="#F8C696"/>
<stop offset="1" stop-color="#E9426B"/>
</linearGradient>
<linearGradient id="paint50_linear_0_1335" x1="10742.9" y1="7598.9" x2="10779.6" y2="7636.15" gradientUnits="userSpaceOnUse">
<stop stop-color="#F8C696"/>
<stop offset="1" stop-color="#E9426B"/>
</linearGradient>
<linearGradient id="paint51_linear_0_1335" x1="8176.4" y1="4108.87" x2="8201.79" y2="4134.63" gradientUnits="userSpaceOnUse">
<stop stop-color="#F8C696"/>
<stop offset="1" stop-color="#E9426B"/>
</linearGradient>
<linearGradient id="paint52_linear_0_1335" x1="7725.41" y1="4882.33" x2="7799.62" y2="4824.43" gradientUnits="userSpaceOnUse">
<stop stop-color="#F8C696"/>
<stop offset="1" stop-color="#E9426B"/>
</linearGradient>
<linearGradient id="paint53_linear_0_1335" x1="-9321.43" y1="23200.6" x2="-9483.25" y2="23078" gradientUnits="userSpaceOnUse">
<stop stop-color="#F8C696"/>
<stop offset="1" stop-color="#E9426B"/>
</linearGradient>
<linearGradient id="paint54_linear_0_1335" x1="-14205.5" y1="25302" x2="-14269.7" y2="25253.4" gradientUnits="userSpaceOnUse">
<stop stop-color="#F8C696"/>
<stop offset="1" stop-color="#E9426B"/>
</linearGradient>
<linearGradient id="paint55_linear_0_1335" x1="-13002" y1="22928.9" x2="-13182" y2="23102.4" gradientUnits="userSpaceOnUse">
<stop stop-color="#F8C696"/>
<stop offset="1" stop-color="#E9426B"/>
</linearGradient>
<linearGradient id="paint56_linear_0_1335" x1="181.79" y1="80.3711" x2="217.333" y2="18.1952" gradientUnits="userSpaceOnUse">
<stop stop-color="#E9426B"/>
<stop offset="1" stop-color="#F8C696" stop-opacity="0"/>
</linearGradient>
<linearGradient id="paint57_linear_0_1335" x1="-35449.5" y1="35434.3" x2="-34183.5" y2="33219.7" gradientUnits="userSpaceOnUse">
<stop stop-color="#E9426B"/>
<stop offset="1" stop-color="#F8C696" stop-opacity="0"/>
</linearGradient>
<linearGradient id="paint58_linear_0_1335" x1="9981.65" y1="8285.56" x2="10273.4" y2="4891.21" gradientUnits="userSpaceOnUse">
<stop offset="0.21" stop-color="#BC5BAA"/>
<stop offset="1" stop-color="#201E76"/>
</linearGradient>
<linearGradient id="paint59_linear_0_1335" x1="15849" y1="3415.26" x2="16764.6" y2="3415.26" gradientUnits="userSpaceOnUse">
<stop stop-color="#EDEEFC"/>
<stop offset="1" stop-color="white"/>
</linearGradient>
<linearGradient id="paint60_linear_0_1335" x1="168.104" y1="266.982" x2="460.761" y2="65.8993" gradientUnits="userSpaceOnUse">
<stop offset="0.21" stop-color="#CC5BAA"/>
<stop offset="1" stop-color="#201E76"/>
</linearGradient>
<linearGradient id="paint61_linear_0_1335" x1="329.744" y1="88.3465" x2="360.251" y2="88.3465" gradientUnits="userSpaceOnUse">
<stop stop-color="#C2D1FC"/>
<stop offset="1" stop-color="white"/>
</linearGradient>
<linearGradient id="paint62_linear_0_1335" x1="-10611.8" y1="-678.957" x2="-9318.24" y2="-1714.59" gradientUnits="userSpaceOnUse">
<stop stop-color="#EDEEFC"/>
<stop offset="1" stop-color="white"/>
</linearGradient>
<linearGradient id="paint63_linear_0_1335" x1="9408.62" y1="1797.04" x2="9677.04" y2="1797.04" gradientUnits="userSpaceOnUse">
<stop stop-color="#C2D1FC"/>
<stop offset="1" stop-color="white"/>
</linearGradient>
<linearGradient id="paint64_linear_0_1335" x1="1911.17" y1="378.551" x2="1918.87" y2="378.551" gradientUnits="userSpaceOnUse">
<stop stop-color="#C2D1FC"/>
<stop offset="1" stop-color="white"/>
</linearGradient>
<linearGradient id="paint65_linear_0_1335" x1="7438.96" y1="1603.53" x2="7621.73" y2="1603.53" gradientUnits="userSpaceOnUse">
<stop stop-color="#C2D1FC"/>
<stop offset="1" stop-color="white"/>
</linearGradient>
<linearGradient id="paint66_linear_0_1335" x1="8475.42" y1="1481.2" x2="8713.76" y2="1481.2" gradientUnits="userSpaceOnUse">
<stop stop-color="#C2D1FC"/>
<stop offset="1" stop-color="white"/>
</linearGradient>
<linearGradient id="paint67_linear_0_1335" x1="903.107" y1="1219.04" x2="904.343" y2="1219.04" gradientUnits="userSpaceOnUse">
<stop stop-color="#C2D1FC"/>
<stop offset="1" stop-color="white"/>
</linearGradient>
<linearGradient id="paint68_linear_0_1335" x1="1410.02" y1="2167.84" x2="1414.2" y2="2167.84" gradientUnits="userSpaceOnUse">
<stop stop-color="#C2D1FC"/>
<stop offset="1" stop-color="white"/>
</linearGradient>
<linearGradient id="paint69_linear_0_1335" x1="1174.37" y1="2235.84" x2="1176.87" y2="2235.84" gradientUnits="userSpaceOnUse">
<stop stop-color="#C2D1FC"/>
<stop offset="1" stop-color="white"/>
</linearGradient>
<linearGradient id="paint70_linear_0_1335" x1="5968.77" y1="943.988" x2="6076.79" y2="943.988" gradientUnits="userSpaceOnUse">
<stop stop-color="#C2D1FC"/>
<stop offset="1" stop-color="white"/>
</linearGradient>
<linearGradient id="paint71_linear_0_1335" x1="4465.9" y1="660.494" x2="4524.1" y2="660.494" gradientUnits="userSpaceOnUse">
<stop stop-color="#C2D1FC"/>
<stop offset="1" stop-color="white"/>
</linearGradient>
<linearGradient id="paint72_linear_0_1335" x1="18944.3" y1="4847.47" x2="20328.6" y2="4847.47" gradientUnits="userSpaceOnUse">
<stop stop-color="white" stop-opacity="0"/>
<stop offset="0.18" stop-color="white" stop-opacity="0.21"/>
<stop offset="0.48" stop-color="white" stop-opacity="0.55"/>
<stop offset="0.73" stop-color="white" stop-opacity="0.79"/>
<stop offset="0.91" stop-color="white" stop-opacity="0.94"/>
<stop offset="1" stop-color="white"/>
</linearGradient>
<linearGradient id="paint73_linear_0_1335" x1="9556.41" y1="2491.55" x2="9896.57" y2="2491.55" gradientUnits="userSpaceOnUse">
<stop stop-color="white" stop-opacity="0"/>
<stop offset="0.18" stop-color="white" stop-opacity="0.21"/>
<stop offset="0.48" stop-color="white" stop-opacity="0.55"/>
<stop offset="0.73" stop-color="white" stop-opacity="0.79"/>
<stop offset="0.91" stop-color="white" stop-opacity="0.94"/>
<stop offset="1" stop-color="white"/>
</linearGradient>
<linearGradient id="paint74_linear_0_1335" x1="3724.31" y1="973.581" x2="3773.06" y2="973.581" gradientUnits="userSpaceOnUse">
<stop stop-color="white" stop-opacity="0"/>
<stop offset="0.18" stop-color="white" stop-opacity="0.21"/>
<stop offset="0.48" stop-color="white" stop-opacity="0.55"/>
<stop offset="0.73" stop-color="white" stop-opacity="0.79"/>
<stop offset="0.91" stop-color="white" stop-opacity="0.94"/>
<stop offset="1" stop-color="white"/>
</linearGradient>
<linearGradient id="paint75_linear_0_1335" x1="3473.91" y1="13059.5" x2="3620.86" y2="13059.5" gradientUnits="userSpaceOnUse">
<stop stop-color="#EDEEFC"/>
<stop offset="1" stop-color="white"/>
</linearGradient>
<linearGradient id="paint76_linear_0_1335" x1="8556.4" y1="8791.01" x2="11075.1" y2="8791.01" gradientUnits="userSpaceOnUse">
<stop stop-color="#F8C696"/>
<stop offset="1" stop-color="#E9426B"/>
</linearGradient>
<linearGradient id="paint77_linear_0_1335" x1="8827.09" y1="13899.9" x2="8416.08" y2="11651" gradientUnits="userSpaceOnUse">
<stop stop-color="#F8C696"/>
<stop offset="1" stop-color="#E9426B"/>
</linearGradient>
<linearGradient id="paint78_linear_0_1335" x1="2127.16" y1="2355.62" x2="2089.3" y2="2494.66" gradientUnits="userSpaceOnUse">
<stop stop-color="#F8C696"/>
<stop offset="1" stop-color="#E9426B"/>
</linearGradient>
<linearGradient id="paint79_linear_0_1335" x1="2707.4" y1="3147.89" x2="3333.92" y2="3136.6" gradientUnits="userSpaceOnUse">
<stop stop-color="#8ACCD4"/>
<stop offset="1" stop-color="#C3EBC4"/>
</linearGradient>
<linearGradient id="paint80_linear_0_1335" x1="-12569.9" y1="10012.3" x2="-12411.3" y2="9719.18" gradientUnits="userSpaceOnUse">
<stop stop-color="#19405E"/>
<stop offset="1" stop-color="#246F7E"/>
</linearGradient>
<linearGradient id="paint81_linear_0_1335" x1="1459.86" y1="1888.78" x2="1687.82" y2="1884.64" gradientUnits="userSpaceOnUse">
<stop stop-color="#8ACCD4"/>
<stop offset="1" stop-color="#C3EBC4"/>
</linearGradient>
<linearGradient id="paint82_linear_0_1335" x1="-7111.1" y1="5714.42" x2="-7053.42" y2="5607.83" gradientUnits="userSpaceOnUse">
<stop stop-color="#19405E"/>
<stop offset="1" stop-color="#246F7E"/>
</linearGradient>
<linearGradient id="paint83_linear_0_1335" x1="806.51" y1="1121.89" x2="891.637" y2="1120.33" gradientUnits="userSpaceOnUse">
<stop stop-color="#8ACCD4"/>
<stop offset="1" stop-color="#C3EBC4"/>
</linearGradient>
<linearGradient id="paint84_linear_0_1335" x1="-3935.86" y1="3218.4" x2="-3914.33" y2="3178.58" gradientUnits="userSpaceOnUse">
<stop stop-color="#19405E"/>
<stop offset="1" stop-color="#246F7E"/>
</linearGradient>
<linearGradient id="paint85_linear_0_1335" x1="-17891" y1="14338.3" x2="-17577.8" y2="13759.5" gradientUnits="userSpaceOnUse">
<stop stop-color="#8ACCD4"/>
<stop offset="1" stop-color="#C3EBC4"/>
</linearGradient>
<linearGradient id="paint86_linear_0_1335" x1="-9315.35" y1="7450.45" x2="-9220.35" y2="7274.86" gradientUnits="userSpaceOnUse">
<stop stop-color="#8ACCD4"/>
<stop offset="1" stop-color="#C3EBC4"/>
</linearGradient>
<linearGradient id="paint87_linear_0_1335" x1="958.038" y1="727.344" x2="959.338" y2="727.344" gradientUnits="userSpaceOnUse">
<stop stop-color="#C2D1FC"/>
<stop offset="1" stop-color="white"/>
</linearGradient>
<linearGradient id="paint88_linear_0_1335" x1="-3820.69" y1="1014.53" x2="-4116.3" y2="1095.6" gradientUnits="userSpaceOnUse">
<stop stop-color="#F8C696"/>
<stop offset="1" stop-color="#E9426B"/>
</linearGradient>
<linearGradient id="paint89_linear_0_1335" x1="3040.64" y1="3731" x2="3831.43" y2="3731" gradientUnits="userSpaceOnUse">
<stop stop-color="#EDEEFC"/>
<stop offset="1" stop-color="white"/>
</linearGradient>
<linearGradient id="paint90_linear_0_1335" x1="-4652.1" y1="1990.2" x2="-5474.41" y2="1990.2" gradientUnits="userSpaceOnUse">
<stop stop-color="#EDEEFC"/>
<stop offset="1" stop-color="white"/>
</linearGradient>
<linearGradient id="paint91_linear_0_1335" x1="9920.41" y1="8235.16" x2="24865.3" y2="9122.3" gradientUnits="userSpaceOnUse">
<stop stop-color="#EDEEFC"/>
<stop offset="1" stop-color="white"/>
</linearGradient>
<linearGradient id="paint92_linear_0_1335" x1="3623.5" y1="4619.81" x2="3976.4" y2="4751.02" gradientUnits="userSpaceOnUse">
<stop stop-color="#F8C696"/>
<stop offset="1" stop-color="#E9426B"/>
</linearGradient>
<linearGradient id="paint93_linear_0_1335" x1="27406.4" y1="16482" x2="68821.5" y2="19803.4" gradientUnits="userSpaceOnUse">
<stop stop-color="#EDEEFC"/>
<stop offset="1" stop-color="white"/>
</linearGradient>
<linearGradient id="paint94_linear_0_1335" x1="41669.8" y1="23726.9" x2="104326" y2="28268.9" gradientUnits="userSpaceOnUse">
<stop stop-color="#EDEEFC"/>
<stop offset="1" stop-color="white"/>
</linearGradient>
<linearGradient id="paint95_linear_0_1335" x1="4925.68" y1="4391.63" x2="12105.5" y2="4768.87" gradientUnits="userSpaceOnUse">
<stop stop-color="#F8C696"/>
<stop offset="1" stop-color="#E9426B"/>
</linearGradient>
<linearGradient id="paint96_linear_0_1335" x1="15725.5" y1="32834.1" x2="31665.9" y2="33052.9" gradientUnits="userSpaceOnUse">
<stop stop-color="#EDEEFC"/>
<stop offset="1" stop-color="white"/>
</linearGradient>
<linearGradient id="paint97_linear_0_1335" x1="7004.78" y1="5426.1" x2="7860.47" y2="5536.34" gradientUnits="userSpaceOnUse">
<stop stop-color="#F8C696"/>
<stop offset="1" stop-color="#E9426B"/>
</linearGradient>
<linearGradient id="paint98_linear_0_1335" x1="50.9047" y1="320.307" x2="14.8292" y2="338.169" gradientUnits="userSpaceOnUse">
<stop stop-color="#5E786A"/>
<stop offset="0.85" stop-color="#97C7BA" stop-opacity="0"/>
</linearGradient>
<linearGradient id="paint99_linear_0_1335" x1="-5778.09" y1="1943.56" x2="-5607.14" y2="2069.9" gradientUnits="userSpaceOnUse">
<stop stop-color="#5E786A"/>
<stop offset="0.85" stop-color="#97C7BA" stop-opacity="0"/>
</linearGradient>
<linearGradient id="paint100_linear_0_1335" x1="2531.31" y1="8072.51" x2="1718.29" y2="8673.09" gradientUnits="userSpaceOnUse">
<stop stop-color="#5E786A"/>
<stop offset="0.85" stop-color="#97C7BA" stop-opacity="0"/>
</linearGradient>
<linearGradient id="paint101_linear_0_1335" x1="593.757" y1="5484.07" x2="247.398" y2="5739.92" gradientUnits="userSpaceOnUse">
<stop stop-color="#5E786A"/>
<stop offset="0.85" stop-color="#97C7BA" stop-opacity="0"/>
</linearGradient>
<linearGradient id="paint102_linear_0_1335" x1="1396.08" y1="7058.84" x2="861.042" y2="7454.03" gradientUnits="userSpaceOnUse">
<stop stop-color="#5E786A"/>
<stop offset="0.85" stop-color="#97C7BA" stop-opacity="0"/>
</linearGradient>
</defs>
</svg>
