<svg width="38" height="38" viewBox="0 0 38 38" fill="none" xmlns="http://www.w3.org/2000/svg">
<circle cx="19" cy="19" r="19" fill="url(#paint0_linear_72_2012)"/>
<path d="M27.9101 18.1198V13.7298C27.9101 12.9098 27.2901 11.9798 26.5201 11.6698L20.9501 9.38982C19.7001 8.87982 18.2901 8.87982 17.0401 9.38982L11.4701 11.6698C10.7101 11.9798 10.0901 12.9098 10.0901 13.7298V18.1198C10.0901 23.0098 13.6401 27.5898 18.4901 28.9298C18.8201 29.0198 19.1801 29.0198 19.5101 28.9298C24.3601 27.5898 27.9101 23.0098 27.9101 18.1198ZM19.7501 19.8698V22.4998C19.7501 22.9098 19.4101 23.2498 19.0001 23.2498C18.5901 23.2498 18.2501 22.9098 18.2501 22.4998V19.8698C17.2401 19.5498 16.5001 18.6098 16.5001 17.4998C16.5001 16.1198 17.6201 14.9998 19.0001 14.9998C20.3801 14.9998 21.5001 16.1198 21.5001 17.4998C21.5001 18.6198 20.7601 19.5498 19.7501 19.8698Z" fill="white"/>
<defs>
<linearGradient id="paint0_linear_72_2012" x1="0" y1="0" x2="42.9645" y2="31.1532" gradientUnits="userSpaceOnUse">
<stop offset="0.108037" stop-color="#5C43FF"/>
<stop offset="1" stop-color="#33CDFF"/>
</linearGradient>
</defs>
</svg>
