<svg width="36" height="60" viewBox="0 0 36 60" fill="none" xmlns="http://www.w3.org/2000/svg">
<path d="M43.5743 32.5311C43.0213 29.4491 41.8419 26.5133 40.109 23.9052L25.864 1.36479C26.1092 0.522459 26.2159 0 26.2159 0L41.7618 24.6089C44.5084 28.7292 45.8366 33.6326 45.545 38.5758C45.2535 43.5189 43.3582 48.2323 40.1463 52.0011C36.9345 55.7699 32.5814 58.3887 27.747 59.4604C22.9126 60.5321 17.8606 59.9983 13.3569 57.9398C17.1223 59.3408 21.194 59.709 25.1496 59.0061C28.0997 58.4815 30.9173 57.38 33.441 55.7646C35.9646 54.1492 38.1447 52.0517 39.8563 49.5923C41.5679 47.1328 42.7773 44.3599 43.4153 41.4322C44.0534 38.5045 44.1074 35.4797 43.5743 32.5311Z" fill="#C1D68E" fill-opacity="0.03"/>
<path d="M7.30054 53.856C11.801 55.383 16.6665 55.4626 21.2145 54.0836C25.7624 52.7045 29.7644 49.936 32.6588 46.1666C35.5532 42.3972 37.1946 37.8162 37.3528 33.0664C37.511 28.3166 36.178 23.6365 33.5409 19.6828L24.4778 5.25654C25.0381 3.99172 25.5154 2.6917 25.9066 1.36475L40.1623 23.9158C42.2586 27.0597 43.5392 30.6759 43.8889 34.4384C44.2385 38.2008 43.6461 41.9912 42.165 45.4675C40.6839 48.9438 38.3608 51.9967 35.4052 54.3509C32.4495 56.7052 28.9543 58.2866 25.2348 58.9527C22.0755 59.6795 18.7836 59.5943 15.6661 58.705C12.5487 57.8156 9.70733 56.1511 7.40714 53.8667L7.30054 53.856Z" fill="#8AAD4D" fill-opacity="0.03"/>
<path d="M33.5408 19.6828C36.178 23.6364 37.511 28.3165 37.3528 33.0663C37.1946 37.8161 35.5531 42.3971 32.6588 46.1665C29.7644 49.9359 25.7624 52.7044 21.2145 54.0835C16.6665 55.4625 11.801 55.383 7.30054 53.8559C4.50554 51.273 2.4041 48.0294 1.18908 44.4228C-0.0259329 40.8162 -0.315584 36.9622 0.346706 33.2146C1.009 29.4669 2.60198 25.9456 4.97952 22.9739C7.35705 20.0022 10.4429 17.6753 13.9539 16.2068C19.5197 14.0743 22.7184 9.1269 24.4564 5.26709L33.5729 19.6934L33.5408 19.6828Z" fill="#C1D68E" fill-opacity="0.03"/>
</svg>
