<svg width="38" height="38" viewBox="0 0 38 38" fill="none" xmlns="http://www.w3.org/2000/svg">
<circle cx="19" cy="19" r="19" fill="url(#paint0_linear_72_2011)"/>
<path d="M27.21 14.8199L19.51 19.2799C19.2 19.4599 18.81 19.4599 18.49 19.2799L10.79 14.8199C10.24 14.4999 10.1 13.7499 10.52 13.2799C10.81 12.9499 11.14 12.6799 11.49 12.4899L16.91 9.48994C18.07 8.83994 19.95 8.83994 21.11 9.48994L26.53 12.4899C26.88 12.6799 27.21 12.9599 27.5 13.2799C27.9 13.7499 27.76 14.4999 27.21 14.8199Z" fill="white"/>
<path d="M18.43 21.1399V27.9599C18.43 28.7199 17.66 29.2199 16.98 28.8899C14.92 27.8799 11.45 25.9899 11.45 25.9899C10.23 25.2999 9.22998 23.5599 9.22998 22.1299V16.9699C9.22998 16.1799 10.06 15.6799 10.74 16.0699L17.93 20.2399C18.23 20.4299 18.43 20.7699 18.43 21.1399Z" fill="white"/>
<path d="M19.5701 21.1399V27.9599C19.5701 28.7199 20.3401 29.2199 21.0201 28.8899C23.0801 27.8799 26.5501 25.9899 26.5501 25.9899C27.7701 25.2999 28.7701 23.5599 28.7701 22.1299V16.9699C28.7701 16.1799 27.9401 15.6799 27.2601 16.0699L20.0701 20.2399C19.7701 20.4299 19.5701 20.7699 19.5701 21.1399Z" fill="white"/>
<defs>
<linearGradient id="paint0_linear_72_2011" x1="0" y1="0" x2="42.9645" y2="31.1532" gradientUnits="userSpaceOnUse">
<stop offset="0.108037" stop-color="#5C43FF"/>
<stop offset="1" stop-color="#33CDFF"/>
</linearGradient>
</defs>
</svg>
