<svg width="46" height="47" viewBox="0 0 46 47" fill="none" xmlns="http://www.w3.org/2000/svg">
<path d="M43.5743 19.5311C43.0213 16.4491 41.8419 13.5133 40.109 10.9052L25.864 -11.6352C26.1092 -12.4775 26.2159 -13 26.2159 -13L41.7618 11.6089C44.5084 15.7292 45.8366 20.6326 45.545 25.5758C45.2535 30.5189 43.3582 35.2323 40.1463 39.0011C36.9345 42.7699 32.5814 45.3887 27.747 46.4604C22.9126 47.5321 17.8606 46.9983 13.3569 44.9398C17.1223 46.3408 21.194 46.709 25.1496 46.0061C28.0997 45.4815 30.9173 44.38 33.441 42.7646C35.9646 41.1492 38.1447 39.0517 39.8563 36.5923C41.5679 34.1328 42.7773 31.3599 43.4153 28.4322C44.0534 25.5045 44.1074 22.4797 43.5743 19.5311Z" fill="#C1D68E" fill-opacity="0.03"/>
<path d="M7.30054 40.856C11.801 42.383 16.6665 42.4626 21.2145 41.0836C25.7624 39.7045 29.7644 36.936 32.6588 33.1666C35.5532 29.3972 37.1946 24.8162 37.3528 20.0664C37.511 15.3166 36.178 10.6365 33.5409 6.68284L24.4778 -7.74346C25.0381 -9.00828 25.5154 -10.3083 25.9066 -11.6353L40.1623 10.9158C42.2586 14.0597 43.5392 17.6759 43.8889 21.4384C44.2385 25.2008 43.6461 28.9912 42.165 32.4675C40.6839 35.9438 38.3608 38.9967 35.4052 41.3509C32.4495 43.7052 28.9543 45.2866 25.2348 45.9527C22.0755 46.6795 18.7836 46.5943 15.6661 45.705C12.5487 44.8156 9.70733 43.1511 7.40714 40.8667L7.30054 40.856Z" fill="#8AAD4D" fill-opacity="0.03"/>
<path d="M33.5408 6.68275C36.178 10.6364 37.511 15.3165 37.3528 20.0663C37.1946 24.8161 35.5531 29.3971 32.6588 33.1665C29.7644 36.9359 25.7624 39.7044 21.2145 41.0835C16.6665 42.4625 11.801 42.383 7.30054 40.8559C4.50554 38.273 2.4041 35.0294 1.18908 31.4228C-0.0259329 27.8162 -0.315584 23.9622 0.346706 20.2146C1.009 16.4669 2.60198 12.9456 4.97952 9.97393C7.35705 7.00224 10.4429 4.67533 13.9539 3.20678C19.5197 1.07429 22.7184 -3.8731 24.4564 -7.73291L33.5729 6.69343L33.5408 6.68275Z" fill="#C1D68E" fill-opacity="0.03"/>
</svg>
