<svg width="318" height="118" viewBox="0 0 318 118" fill="none" xmlns="http://www.w3.org/2000/svg">
<mask id="mask0_71_1927" style="mask-type:alpha" maskUnits="userSpaceOnUse" x="0" y="0" width="318" height="118">
<rect width="318" height="118" rx="26" fill="#161A2E"/>
</mask>
<g mask="url(#mask0_71_1927)">
<path d="M325.574 79.5311C325.021 76.4491 323.842 73.5133 322.109 70.9052L307.864 48.3648C308.109 47.5225 308.216 47 308.216 47L323.762 71.6089C326.508 75.7292 327.837 80.6326 327.545 85.5758C327.254 90.5189 325.358 95.2323 322.146 99.0011C318.934 102.77 314.581 105.389 309.747 106.46C304.913 107.532 299.861 106.998 295.357 104.94C299.122 106.341 303.194 106.709 307.15 106.006C310.1 105.482 312.917 104.38 315.441 102.765C317.965 101.149 320.145 99.0517 321.856 96.5923C323.568 94.1328 324.777 91.3599 325.415 88.4322C326.053 85.5045 326.107 82.4797 325.574 79.5311Z" fill="#C1D68E" fill-opacity="0.03"/>
<path d="M289.301 100.856C293.801 102.383 298.667 102.463 303.214 101.084C307.762 99.7045 311.764 96.936 314.659 93.1666C317.553 89.3972 319.195 84.8162 319.353 80.0664C319.511 75.3166 318.178 70.6365 315.541 66.6828L306.478 52.2565C307.038 50.9917 307.515 49.6917 307.907 48.3647L322.162 70.9158C324.259 74.0597 325.539 77.6759 325.889 81.4384C326.239 85.2008 325.646 88.9912 324.165 92.4675C322.684 95.9438 320.361 98.9967 317.405 101.351C314.45 103.705 310.954 105.287 307.235 105.953C304.076 106.68 300.784 106.594 297.666 105.705C294.549 104.816 291.707 103.151 289.407 100.867L289.301 100.856Z" fill="#8AAD4D" fill-opacity="0.03"/>
<path d="M315.541 66.6828C318.178 70.6364 319.511 75.3165 319.353 80.0663C319.195 84.8161 317.553 89.3971 314.659 93.1665C311.764 96.9359 307.762 99.7044 303.214 101.083C298.667 102.463 293.801 102.383 289.301 100.856C286.506 98.273 284.404 95.0294 283.189 91.4228C281.974 87.8162 281.684 83.9622 282.347 80.2146C283.009 76.4669 284.602 72.9456 286.98 69.9739C289.357 67.0022 292.443 64.6753 295.954 63.2068C301.52 61.0743 304.718 56.1269 306.456 52.2671L315.573 66.6934L315.541 66.6828Z" fill="#C1D68E" fill-opacity="0.03"/>
<path d="M225.574 109.531C225.021 106.449 223.842 103.513 222.109 100.905L207.864 78.3648C208.109 77.5225 208.216 77 208.216 77L223.762 101.609C226.508 105.729 227.837 110.633 227.545 115.576C227.254 120.519 225.358 125.232 222.146 129.001C218.934 132.77 214.581 135.389 209.747 136.46C204.913 137.532 199.861 136.998 195.357 134.94C199.122 136.341 203.194 136.709 207.15 136.006C210.1 135.482 212.917 134.38 215.441 132.765C217.965 131.149 220.145 129.052 221.856 126.592C223.568 124.133 224.777 121.36 225.415 118.432C226.053 115.505 226.107 112.48 225.574 109.531Z" fill="#C1D68E" fill-opacity="0.03"/>
<path d="M189.301 130.856C193.801 132.383 198.667 132.463 203.214 131.084C207.762 129.704 211.764 126.936 214.659 123.167C217.553 119.397 219.195 114.816 219.353 110.066C219.511 105.317 218.178 100.636 215.541 96.6828L206.478 82.2565C207.038 80.9917 207.515 79.6917 207.907 78.3647L222.162 100.916C224.259 104.06 225.539 107.676 225.889 111.438C226.239 115.201 225.646 118.991 224.165 122.467C222.684 125.944 220.361 128.997 217.405 131.351C214.45 133.705 210.954 135.287 207.235 135.953C204.076 136.68 200.784 136.594 197.666 135.705C194.549 134.816 191.707 133.151 189.407 130.867L189.301 130.856Z" fill="#8AAD4D" fill-opacity="0.03"/>
<path d="M215.541 96.6828C218.178 100.636 219.511 105.316 219.353 110.066C219.195 114.816 217.553 119.397 214.659 123.167C211.764 126.936 207.762 129.704 203.214 131.083C198.667 132.463 193.801 132.383 189.301 130.856C186.506 128.273 184.404 125.029 183.189 121.423C181.974 117.816 181.684 113.962 182.347 110.215C183.009 106.467 184.602 102.946 186.98 99.9739C189.357 97.0022 192.443 94.6753 195.954 93.2068C201.52 91.0743 204.718 86.1269 206.456 82.2671L215.573 96.6934L215.541 96.6828Z" fill="#C1D68E" fill-opacity="0.03"/>
<path d="M255.574 19.5311C255.021 16.4491 253.842 13.5133 252.109 10.9052L237.864 -11.6352C238.109 -12.4775 238.216 -13 238.216 -13L253.762 11.6089C256.508 15.7292 257.837 20.6326 257.545 25.5758C257.254 30.5189 255.358 35.2323 252.146 39.0011C248.934 42.7699 244.581 45.3887 239.747 46.4604C234.913 47.5321 229.861 46.9983 225.357 44.9398C229.122 46.3408 233.194 46.709 237.15 46.0061C240.1 45.4815 242.917 44.38 245.441 42.7646C247.965 41.1492 250.145 39.0517 251.856 36.5923C253.568 34.1328 254.777 31.3599 255.415 28.4322C256.053 25.5045 256.107 22.4797 255.574 19.5311Z" fill="#C1D68E" fill-opacity="0.03"/>
<path d="M219.301 40.856C223.801 42.383 228.667 42.4626 233.214 41.0836C237.762 39.7045 241.764 36.936 244.659 33.1666C247.553 29.3972 249.195 24.8162 249.353 20.0664C249.511 15.3166 248.178 10.6365 245.541 6.68284L236.478 -7.74346C237.038 -9.00828 237.515 -10.3083 237.907 -11.6353L252.162 10.9158C254.259 14.0597 255.539 17.6759 255.889 21.4384C256.239 25.2008 255.646 28.9912 254.165 32.4675C252.684 35.9438 250.361 38.9967 247.405 41.3509C244.45 43.7052 240.954 45.2866 237.235 45.9527C234.076 46.6795 230.784 46.5943 227.666 45.705C224.549 44.8156 221.707 43.1511 219.407 40.8667L219.301 40.856Z" fill="#8AAD4D" fill-opacity="0.03"/>
<path d="M245.541 6.68275C248.178 10.6364 249.511 15.3165 249.353 20.0663C249.195 24.8161 247.553 29.3971 244.659 33.1665C241.764 36.9359 237.762 39.7044 233.214 41.0835C228.667 42.4625 223.801 42.383 219.301 40.8559C216.506 38.273 214.404 35.0294 213.189 31.4228C211.974 27.8162 211.684 23.9622 212.347 20.2146C213.009 16.4669 214.602 12.9456 216.98 9.97393C219.357 7.00224 222.443 4.67533 225.954 3.20678C231.52 1.07429 234.718 -3.8731 236.456 -7.73291L245.573 6.69343L245.541 6.68275Z" fill="#C1D68E" fill-opacity="0.03"/>
<path d="M115.574 39.5311C115.021 36.4491 113.842 33.5133 112.109 30.9052L97.864 8.36479C98.1092 7.52246 98.2159 7 98.2159 7L113.762 31.6089C116.508 35.7292 117.837 40.6326 117.545 45.5758C117.254 50.5189 115.358 55.2323 112.146 59.0011C108.934 62.7699 104.581 65.3887 99.747 66.4604C94.9126 67.5321 89.8606 66.9983 85.3569 64.9398C89.1223 66.3408 93.194 66.709 97.1496 66.0061C100.1 65.4815 102.917 64.38 105.441 62.7646C107.965 61.1492 110.145 59.0517 111.856 56.5923C113.568 54.1328 114.777 51.3599 115.415 48.4322C116.053 45.5045 116.107 42.4797 115.574 39.5311Z" fill="#C1D68E" fill-opacity="0.03"/>
<path d="M79.3005 60.856C83.801 62.383 88.6665 62.4626 93.2145 61.0836C97.7624 59.7045 101.764 56.936 104.659 53.1666C107.553 49.3972 109.195 44.8162 109.353 40.0664C109.511 35.3166 108.178 30.6365 105.541 26.6828L96.4778 12.2565C97.0381 10.9917 97.5154 9.6917 97.9066 8.36475L112.162 30.9158C114.259 34.0597 115.539 37.6759 115.889 41.4384C116.239 45.2008 115.646 48.9912 114.165 52.4675C112.684 55.9438 110.361 58.9967 107.405 61.3509C104.45 63.7052 100.954 65.2866 97.2348 65.9527C94.0755 66.6795 90.7836 66.5943 87.6661 65.705C84.5487 64.8156 81.7073 63.1511 79.4071 60.8667L79.3005 60.856Z" fill="#8AAD4D" fill-opacity="0.03"/>
<path d="M105.541 26.6828C108.178 30.6364 109.511 35.3165 109.353 40.0663C109.195 44.8161 107.553 49.3971 104.659 53.1665C101.764 56.9359 97.7624 59.7044 93.2145 61.0835C88.6665 62.4625 83.801 62.383 79.3005 60.8559C76.5055 58.273 74.4041 55.0294 73.1891 51.4228C71.9741 47.8162 71.6844 43.9622 72.3467 40.2146C73.009 36.4669 74.602 32.9456 76.9795 29.9739C79.357 27.0022 82.4429 24.6753 85.9539 23.2068C91.5197 21.0743 94.7184 16.1269 96.4564 12.2671L105.573 26.6934L105.541 26.6828Z" fill="#C1D68E" fill-opacity="0.03"/>
<path d="M35.5743 109.531C35.0213 106.449 33.8419 103.513 32.109 100.905L17.864 78.3648C18.1092 77.5225 18.2159 77 18.2159 77L33.7618 101.609C36.5084 105.729 37.8366 110.633 37.545 115.576C37.2535 120.519 35.3582 125.232 32.1463 129.001C28.9345 132.77 24.5814 135.389 19.747 136.46C14.9126 137.532 9.86057 136.998 5.35693 134.94C9.12234 136.341 13.194 136.709 17.1496 136.006C20.0997 135.482 22.9173 134.38 25.441 132.765C27.9646 131.149 30.1447 129.052 31.8563 126.592C33.5679 124.133 34.7773 121.36 35.4153 118.432C36.0534 115.505 36.1074 112.48 35.5743 109.531Z" fill="#C1D68E" fill-opacity="0.03"/>
<path d="M-0.699341 130.856C3.80108 132.383 8.66665 132.463 13.2146 131.084C17.7625 129.704 21.7645 126.936 24.6589 123.167C27.5533 119.397 29.1948 114.816 29.353 110.066C29.5112 105.317 28.1781 100.636 25.541 96.6828L16.4779 82.2565C17.0383 80.9917 17.5156 79.6917 17.9067 78.3647L32.1624 100.916C34.2587 104.06 35.5394 107.676 35.889 111.438C36.2386 115.201 35.6462 118.991 34.1651 122.467C32.684 125.944 30.3609 128.997 27.4053 131.351C24.4496 133.705 20.9544 135.287 17.2349 135.953C14.0757 136.68 10.7837 136.594 7.66625 135.705C4.54881 134.816 1.70745 133.151 -0.592742 130.867L-0.699341 130.856Z" fill="#8AAD4D" fill-opacity="0.03"/>
<path d="M25.5408 96.6828C28.178 100.636 29.511 105.316 29.3528 110.066C29.1946 114.816 27.5531 119.397 24.6588 123.167C21.7644 126.936 17.7624 129.704 13.2145 131.083C8.66652 132.463 3.80095 132.383 -0.69946 130.856C-3.49446 128.273 -5.5959 125.029 -6.81092 121.423C-8.02593 117.816 -8.31558 113.962 -7.65329 110.215C-6.991 106.467 -5.39802 102.946 -3.02048 99.9739C-0.642955 97.0022 2.44292 94.6753 5.95391 93.2068C11.5197 91.0743 14.7184 86.1269 16.4564 82.2671L25.5729 96.6934L25.5408 96.6828Z" fill="#C1D68E" fill-opacity="0.03"/>
</g>
</svg>
