<svg width="200" height="200" viewBox="0 0 200 200" fill="none" xmlns="http://www.w3.org/2000/svg">
<mask id="mask0_0_1585" style="mask-type:alpha" maskUnits="userSpaceOnUse" x="0" y="0" width="200" height="200">
<path d="M1.52588e-05 0H200V200H1.52588e-05V0Z" fill="white"/>
</mask>
<g mask="url(#mask0_0_1585)">
<path fill-rule="evenodd" clip-rule="evenodd" d="M100 0C155.23 0 200 44.7705 200 100C200 155.225 155.23 200 100 200C44.7705 200 1.52588e-05 155.225 1.52588e-05 100C1.52588e-05 44.7705 44.7705 0 100 0Z" fill="#2775CA"/>
</g>
<path fill-rule="evenodd" clip-rule="evenodd" d="M81.2545 169.527C81.2545 171.879 79.4125 173.216 77.1375 172.506C46.9023 162.86 24.9807 134.509 24.9807 101.057C24.9807 67.6056 46.9023 39.2534 77.1375 29.6079C79.4125 28.9022 81.2545 30.234 81.2545 32.5863V38.3931C81.2545 39.959 80.0409 41.8022 78.5489 42.3125C54.6273 51.0965 37.4909 74.0772 37.4909 101.017C37.4909 127.957 54.6273 150.942 78.5489 159.722C80.0409 160.272 81.2545 162.074 81.2545 163.645V169.527Z" fill="white"/>
<path fill-rule="evenodd" clip-rule="evenodd" d="M106.235 147.919C106.235 149.646 104.823 151.057 103.098 151.057H96.8618C95.1368 151.057 93.7254 149.646 93.7254 147.919V138.038C80.0777 136.196 73.4129 128.547 71.6084 118.156C71.2936 116.389 72.705 114.782 74.5095 114.782H81.647C83.1368 114.782 84.3925 115.842 84.7061 117.33C86.0402 123.527 89.6084 128.272 100.548 128.272C108.627 128.272 114.354 123.762 114.354 117.02C114.354 110.272 110.98 107.724 99.1368 105.762C81.647 103.41 73.3731 98.1141 73.3731 84.3891C73.3731 73.8016 81.3743 65.5675 93.7652 63.8016V54.1152C93.7652 52.3891 95.1777 50.9766 96.9016 50.9766H103.138C104.863 50.9766 106.274 52.3891 106.274 54.1152V64.0766C116.353 65.8834 122.745 71.605 124.824 81.0947C125.215 82.9016 123.804 84.5845 121.962 84.5845H115.372C113.961 84.5845 112.785 83.6425 112.354 82.2709C110.589 76.2345 106.274 73.647 98.7834 73.647C90.5095 73.647 86.2345 77.6459 86.2345 83.2527C86.2345 89.1743 88.6675 92.1527 101.374 93.9993C118.548 96.3516 127.413 101.253 127.413 115.883C127.413 126.98 119.177 135.961 106.274 138.038V147.919H106.235Z" fill="white"/>
<path fill-rule="evenodd" clip-rule="evenodd" d="M122.863 172.506C120.59 173.216 118.746 171.88 118.746 169.528V163.725C118.746 161.999 119.805 160.392 121.452 159.802C145.373 151.017 162.51 128.037 162.51 101.097C162.51 74.1573 145.373 51.1766 121.452 42.3925C119.962 41.8425 118.746 40.0402 118.746 38.4686V32.6664C118.746 30.3141 120.59 28.9425 122.863 29.6834C153.098 39.3345 175.02 67.6857 175.02 101.137C174.982 134.508 153.098 162.821 122.863 172.506Z" fill="white"/>
</svg>
