<svg width="200" height="200" viewBox="0 0 200 200" fill="none" xmlns="http://www.w3.org/2000/svg">
<path d="M199.821 99.9644C199.821 154.92 155.274 199.467 100.318 199.467C45.3651 199.467 0.815842 154.92 0.815842 99.9644C0.815842 45.0102 45.3651 0.461914 100.318 0.461914C155.274 0.461914 199.821 45.0102 199.821 99.9644Z" fill="#1BA27A"/>
<path d="M147.018 50.6367H52.799V73.383H88.5353V106.816H111.282V73.383H147.018V50.6367Z" fill="white"/>
<path d="M100.124 110.378C70.562 110.378 46.5949 105.699 46.5949 99.9269C46.5949 94.1558 70.561 89.4762 100.124 89.4762C129.686 89.4762 153.653 94.1558 153.653 99.9269C153.653 105.699 129.686 110.378 100.124 110.378ZM160.229 101.669C160.229 94.2264 133.319 88.1936 100.124 88.1936C66.9302 88.1936 40.0187 94.2264 40.0187 101.669C40.0187 108.223 60.8854 113.684 88.5362 114.894V162.888H111.28V114.913C139.144 113.741 160.229 108.257 160.229 101.669Z" fill="white"/>
</svg>
