<svg width="200" height="200" viewBox="0 0 200 200" fill="none" xmlns="http://www.w3.org/2000/svg">
<g clip-path="url(#clip0_0_1594)">
<path d="M163.079 41.9738L157.587 47.4653C170.691 61.795 177.958 80.5097 177.958 99.9273C177.958 119.345 170.691 138.06 157.587 152.389L163.079 157.881C177.651 142.074 185.742 121.362 185.742 99.8633C185.742 78.3642 177.651 57.6524 163.079 41.8457V41.9738Z" fill="#5A5564"/>
<path d="M47.593 42.4491C61.9227 29.3455 80.6374 22.0788 100.055 22.0788C119.473 22.0788 138.187 29.3455 152.517 42.4491L158.009 36.9576C142.202 22.385 121.49 14.2944 99.9909 14.2944C78.4918 14.2944 57.78 22.385 41.9734 36.9576L47.593 42.4491Z" fill="#5A5564"/>
<path d="M42.4491 152.444C29.361 138.118 22.1039 119.415 22.1039 100.01C22.1039 80.605 29.361 61.9017 42.4491 47.5752L36.9576 42.0837C22.385 57.8904 14.2944 78.6022 14.2944 100.101C14.2944 121.6 22.385 142.312 36.9576 158.119L42.4491 152.444Z" fill="#5A5564"/>
<path d="M152.444 157.513C138.114 170.617 119.399 177.884 99.9816 177.884C80.5639 177.884 61.8492 170.617 47.5195 157.513L42.028 163.005C57.8347 177.577 78.5465 185.668 100.046 185.668C121.545 185.668 142.257 177.577 158.063 163.005L152.444 157.513Z" fill="#5A5564"/>
<path d="M134.67 81.6774C133.571 70.2185 123.687 66.3745 111.184 65.2029V49.4241H101.519V64.9101C98.9749 64.9101 96.3756 64.9101 93.7946 64.9101V49.4241H84.2028V65.3128H64.5982V75.6551C64.5982 75.6551 71.7371 75.527 71.6273 75.6551C72.9145 75.5135 74.2064 75.8771 75.2308 76.6693C76.2552 77.4615 76.9321 78.6204 77.1188 79.9018V123.394C77.0913 123.846 76.9734 124.288 76.7722 124.694C76.571 125.099 76.2905 125.46 75.9473 125.756C75.6105 126.057 75.2164 126.286 74.7886 126.431C74.3607 126.576 73.9081 126.633 73.4578 126.598C73.5859 126.708 66.4287 126.598 66.4287 126.598L64.5982 138.148H84.0198V154.293H93.6848V138.386H101.409V154.22H111.093V138.258C127.421 137.27 138.806 133.243 140.234 117.958C141.387 105.657 135.603 100.165 126.359 97.9505C131.979 95.1865 135.457 90.0611 134.67 81.6774ZM121.124 116.054C121.124 128.062 100.549 126.689 93.996 126.689V105.382C100.549 105.401 121.124 103.515 121.124 116.054ZM116.639 86.034C116.639 97.017 99.4691 95.6807 94.0143 95.6807V76.3141C99.4691 76.3141 116.639 74.5934 116.639 86.034Z" fill="#F09242"/>
<path d="M99.9817 200C80.2051 199.996 60.8737 194.129 44.4316 183.139C27.9895 172.15 15.1751 156.532 7.60856 138.26C0.0420644 119.988 -1.93673 99.8829 1.92238 80.4865C5.78149 61.0901 15.3052 43.2735 29.2893 29.2894C43.2735 15.3052 61.0901 5.78152 80.4865 1.92241C99.8829 -1.9367 119.988 0.0420949 138.26 7.60859C156.532 15.1751 172.15 27.9895 183.139 44.4316C194.129 60.8737 199.996 80.2052 200 99.9817C200.002 113.117 197.417 126.124 192.391 138.26C187.366 150.396 179.999 161.423 170.711 170.711C161.423 179.999 150.396 187.366 138.26 192.392C126.124 197.417 113.117 200.002 99.9817 200ZM99.9817 7.79796C81.7614 7.81244 63.9543 13.2282 48.8113 23.3606C33.6682 33.493 21.8688 47.8874 14.9045 64.7242C7.9403 81.561 6.12378 100.085 9.6846 117.954C13.2454 135.823 22.0237 152.235 34.91 165.116C47.7962 177.997 64.212 186.769 82.0824 190.323C99.9528 193.876 118.476 192.052 135.31 185.081C152.144 178.111 166.533 166.305 176.66 151.158C186.786 136.011 192.195 118.202 192.202 99.9817C192.207 87.8716 189.825 75.8792 185.191 64.6904C180.558 53.5016 173.765 43.3358 165.2 34.7743C156.635 26.2128 146.467 19.4235 135.276 14.7947C124.085 10.1659 112.092 7.78833 99.9817 7.79796Z" fill="#282138"/>
</g>
<defs>
<clipPath id="clip0_0_1594">
<rect width="200" height="200" fill="white"/>
</clipPath>
</defs>
</svg>
