<svg width="728" height="169" viewBox="0 0 728 169" fill="none" xmlns="http://www.w3.org/2000/svg">
<path d="M16.7976 33.264C17.4056 30.604 19.0016 25.816 21.5096 20.952C22.0416 19.812 22.7256 18.52 23.2576 17.228H23.4856C24.0176 18.672 24.7016 19.812 25.2336 20.952C27.6656 25.816 29.1856 30.604 29.8696 33.264H16.7976ZM0.00162517 48.92C0.00162517 54.088 2.66163 55.988 6.53763 55.988C10.8696 55.988 12.3896 53.252 13.2256 49.072C13.7576 46.944 13.9096 45.804 14.5176 43.6H32.1496C32.7576 45.804 32.8336 46.944 33.3656 49.072C34.2016 53.252 35.7976 55.988 40.2816 55.988C43.8536 55.988 46.7416 54.164 46.7416 48.996C46.7416 39.876 38.8376 14.948 28.5776 4.688C25.9176 2.028 20.8256 2.028 18.3936 4.46C7.82963 15.024 0.00162517 39.724 0.00162517 48.92ZM83.0429 28.856C84.9429 26.044 87.9829 25.056 90.1109 25.056C93.8349 25.056 96.6469 27.488 96.6469 35.468C96.6469 43.676 92.8469 46.26 89.5029 46.26C86.5389 46.26 84.6389 45.12 83.0429 43.068V28.856ZM69.5909 49.452C69.5909 54.012 72.6309 55.988 75.8229 55.988C78.4829 55.988 80.0029 54.696 80.9909 52.948C83.7269 55.304 87.6789 56.596 91.2509 56.596C99.5349 56.596 110.631 51.276 110.631 35.468C110.631 19.66 101.359 14.644 92.2389 14.644C88.3629 14.644 85.2469 15.86 83.0429 17.608V6.588C83.0429 1.952 79.5469 0.203999 76.2029 0.203999C72.9349 0.203999 69.5909 1.952 69.5909 6.588V49.452ZM128.931 31.668C129.463 27.184 130.755 24.22 134.479 24.22C137.823 24.22 139.495 25.968 139.875 31.668H128.931ZM115.479 36C115.479 51.96 124.751 56.596 136.303 56.596C141.699 56.596 151.275 55.152 151.275 48.996C151.275 46.868 149.755 44.208 146.411 44.208C145.423 44.208 144.359 44.512 143.143 44.892C140.939 45.576 138.355 46.032 136.303 46.032C132.883 46.032 129.387 44.436 129.007 40.18H145.727C151.275 40.18 151.959 37.14 151.959 33.796C151.959 20.116 144.207 14.644 133.871 14.644C124.523 14.644 115.479 20.8 115.479 36ZM160.923 42.764C160.923 53.936 169.283 56.14 175.667 56.14C180.531 56.14 186.611 54.62 186.611 49.68C186.611 46.26 184.331 44.74 182.127 44.74C180.987 44.74 179.239 45.348 177.947 45.348C175.591 45.348 174.299 43.98 174.299 41.168V27.032H180.531C184.787 27.032 186.231 24.448 186.231 21.636C186.231 19.052 184.787 16.24 180.531 16.24H174.299V11.452C174.299 8.108 172.551 6.664 169.435 6.664C164.039 6.664 164.039 11.908 161.607 14.34C159.175 16.772 154.539 17.836 154.539 22.472C154.539 24.6 155.907 27.032 159.023 27.032H160.923V42.764ZM193.802 42.764C193.802 53.936 202.162 56.14 208.546 56.14C213.41 56.14 219.49 54.62 219.49 49.68C219.49 46.26 217.21 44.74 215.006 44.74C213.866 44.74 212.118 45.348 210.826 45.348C208.47 45.348 207.178 43.98 207.178 41.168V27.032H213.41C217.666 27.032 219.11 24.448 219.11 21.636C219.11 19.052 217.666 16.24 213.41 16.24H207.178V11.452C207.178 8.108 205.43 6.664 202.314 6.664C196.918 6.664 196.918 11.908 194.486 14.34C192.054 16.772 187.418 17.836 187.418 22.472C187.418 24.6 188.786 27.032 191.902 27.032H193.802V42.764ZM236.029 31.668C236.561 27.184 237.853 24.22 241.577 24.22C244.921 24.22 246.593 25.968 246.973 31.668H236.029ZM222.577 36C222.577 51.96 231.849 56.596 243.401 56.596C248.797 56.596 258.373 55.152 258.373 48.996C258.373 46.868 256.853 44.208 253.509 44.208C252.521 44.208 251.457 44.512 250.241 44.892C248.037 45.576 245.453 46.032 243.401 46.032C239.981 46.032 236.485 44.436 236.105 40.18H252.825C258.373 40.18 259.057 37.14 259.057 33.796C259.057 20.116 251.305 14.644 240.969 14.644C231.621 14.644 222.577 20.8 222.577 36ZM267.26 49.452C267.26 54.012 270.452 55.836 273.872 55.836C277.216 55.836 280.712 54.012 280.712 49.452V30.452C281.016 28.704 281.852 27.564 282.688 27.564C283.904 27.564 285.12 30.148 288.768 30.148C293.1 30.148 295.152 26.88 295.152 23.004C295.152 18.672 292.644 15.252 287.78 15.252C282.992 15.252 279.952 18.672 278.128 21.94C277.444 20.496 276.456 18.976 275.544 18.064C273.796 16.316 272.2 15.404 269.844 15.404C265.284 15.404 263.384 18.52 263.384 21.788C263.384 25.892 267.26 28.4 267.26 32.58V49.452ZM323.065 54.012C324.509 55.456 326.561 56.14 328.309 56.14C330.361 56.14 331.729 55.456 333.249 53.936C335.453 51.732 337.885 46.868 338.873 43.904H339.101C340.089 46.868 342.521 51.732 344.725 53.936C346.245 55.456 347.613 56.14 349.665 56.14C351.413 56.14 353.465 55.456 354.909 54.012C360.989 47.932 364.257 30.3 364.257 22.624C364.257 18.9 362.433 15.556 358.557 15.556C353.997 15.556 352.401 18.52 352.097 23.004C351.793 27.944 351.033 33.568 349.513 38.356L348.449 41.776H348.297L347.081 38.432C345.257 33.568 344.801 27.336 342.825 25.36C341.913 24.448 340.849 23.688 339.329 23.688C337.581 23.688 336.441 24.372 335.453 25.36C333.401 27.412 333.097 33.492 331.273 38.356C330.893 39.344 330.437 40.864 330.057 41.776H329.905L328.841 38.356C327.321 33.568 326.485 27.944 326.181 23.004C325.877 18.672 324.281 15.556 319.797 15.556C315.541 15.556 313.717 18.748 313.717 22.624C313.717 30.3 316.985 47.932 323.065 54.012ZM382.232 42.992C382.232 38.356 388.92 38.28 392.036 38.28V40.636C392.036 42.46 392.112 43.6 392.416 45.12C390.364 46.032 388.312 46.488 386.26 46.488C383.6 46.488 382.232 45.348 382.232 42.992ZM368.856 43.828C368.856 52.644 376.684 56.596 385.12 56.596C389.984 56.596 394.24 54.696 396.292 52.796C398.344 54.544 400.472 56.216 404.652 56.216C408.68 56.216 410.048 53.404 410.048 51.276C410.048 49.528 409.44 48.54 408.604 47.704C406.4 45.5 404.956 45.804 404.956 42.08V27.412C404.956 18.292 397.128 14.644 387.628 14.644C379.8 14.644 371.668 16.62 371.668 22.624C371.668 25.056 373.34 27.336 376.608 27.336C378.736 27.336 379.876 26.804 381.32 26.272C382.764 25.74 384.436 25.132 387.248 25.132C390.06 25.132 391.884 25.892 391.884 27.64V29.996H390.44C380.408 29.996 368.856 32.656 368.856 43.828ZM414.162 60.7C413.022 61.916 412.49 63.664 412.49 64.956C412.49 68.908 415.302 70.884 418.418 70.884C421.762 70.884 425.258 68.528 428.602 65.26C433.162 60.928 437.722 55.304 441.446 50.06C446.766 42.764 452.238 29.008 452.238 21.56C452.238 18.292 449.882 15.404 445.854 15.404C442.51 15.404 440.154 17.38 439.546 21.104C438.406 27.488 436.126 34.86 432.402 41.548H432.25C428.526 34.86 426.322 27.488 425.182 21.104C424.574 17.228 422.066 15.404 418.95 15.404C414.39 15.404 412.186 18.292 412.186 21.56C412.186 29.692 417.886 44.436 423.738 51.504C422.294 53.48 420.622 55.304 418.722 56.9C417.278 58.04 415.074 59.712 414.162 60.7ZM475.833 42.764C475.833 53.936 484.193 56.14 490.577 56.14C495.441 56.14 501.521 54.62 501.521 49.68C501.521 46.26 499.241 44.74 497.037 44.74C495.897 44.74 494.149 45.348 492.857 45.348C490.501 45.348 489.209 43.98 489.209 41.168V27.032H495.441C499.697 27.032 501.141 24.448 501.141 21.636C501.141 19.052 499.697 16.24 495.441 16.24H489.209V11.452C489.209 8.108 487.461 6.664 484.345 6.664C478.949 6.664 478.949 11.908 476.517 14.34C474.085 16.772 469.449 17.836 469.449 22.472C469.449 24.6 470.817 27.032 473.933 27.032H475.833V42.764ZM525.432 46.184C522.012 46.184 518.592 44.36 518.592 35.62C518.592 26.88 522.012 25.056 525.432 25.056C528.776 25.056 532.272 26.88 532.272 35.62C532.272 44.36 528.7 46.184 525.432 46.184ZM504.608 35.62C504.608 52.112 516.464 56.596 525.432 56.596C534.172 56.596 546.18 52.112 546.18 35.62C546.18 19.128 534.324 14.644 525.432 14.644C516.616 14.644 504.608 19.128 504.608 35.62ZM579.958 31.668C580.49 27.184 581.782 24.22 585.506 24.22C588.85 24.22 590.522 25.968 590.902 31.668H579.958ZM566.506 36C566.506 51.96 575.778 56.596 587.33 56.596C592.726 56.596 602.302 55.152 602.302 48.996C602.302 46.868 600.782 44.208 597.438 44.208C596.45 44.208 595.386 44.512 594.17 44.892C591.966 45.576 589.382 46.032 587.33 46.032C583.91 46.032 580.414 44.436 580.034 40.18H596.754C602.302 40.18 602.986 37.14 602.986 33.796C602.986 20.116 595.234 14.644 584.898 14.644C575.55 14.644 566.506 20.8 566.506 36ZM620.994 42.992C620.994 38.356 627.682 38.28 630.798 38.28V40.636C630.798 42.46 630.874 43.6 631.178 45.12C629.126 46.032 627.074 46.488 625.022 46.488C622.362 46.488 620.994 45.348 620.994 42.992ZM607.618 43.828C607.618 52.644 615.446 56.596 623.882 56.596C628.746 56.596 633.002 54.696 635.054 52.796C637.106 54.544 639.234 56.216 643.414 56.216C647.442 56.216 648.81 53.404 648.81 51.276C648.81 49.528 648.202 48.54 647.366 47.704C645.162 45.5 643.718 45.804 643.718 42.08V27.412C643.718 18.292 635.89 14.644 626.39 14.644C618.562 14.644 610.43 16.62 610.43 22.624C610.43 25.056 612.102 27.336 615.37 27.336C617.498 27.336 618.638 26.804 620.082 26.272C621.526 25.74 623.198 25.132 626.01 25.132C628.822 25.132 630.646 25.892 630.646 27.64V29.996H629.202C619.17 29.996 607.618 32.656 607.618 43.828ZM655.128 49.452C655.128 54.012 658.32 55.836 661.74 55.836C665.084 55.836 668.58 54.012 668.58 49.452V30.452C668.884 28.704 669.72 27.564 670.556 27.564C671.772 27.564 672.988 30.148 676.636 30.148C680.968 30.148 683.02 26.88 683.02 23.004C683.02 18.672 680.512 15.252 675.648 15.252C670.86 15.252 667.82 18.672 665.996 21.94C665.312 20.496 664.324 18.976 663.412 18.064C661.664 16.316 660.068 15.404 657.712 15.404C653.152 15.404 651.252 18.52 651.252 21.788C651.252 25.892 655.128 28.4 655.128 32.58V49.452ZM689.187 49.452C689.187 54.012 692.455 55.836 695.799 55.836C699.143 55.836 702.639 54.012 702.639 49.452V30.452C702.639 30.376 702.639 29.388 702.563 28.78C703.855 27.26 705.299 25.208 709.555 25.208C711.911 25.208 713.811 26.5 713.811 29.844V49.452C713.811 54.088 717.155 55.836 720.499 55.836C723.767 55.836 727.339 54.088 727.339 49.452V29.692C727.339 16.088 717.991 14.644 711.911 14.644C705.451 14.644 701.347 17.836 699.751 20.192C699.067 19.052 698.459 18.14 697.775 17.456C696.027 15.708 694.431 15.404 692.683 15.404C689.339 15.404 686.375 18.216 686.375 21.636C686.375 24.98 689.187 29.084 689.187 32.732V49.452Z" fill="white"/>
<path d="M261.383 158.7C260.243 159.916 259.711 161.664 259.711 162.956C259.711 166.908 262.523 168.884 265.639 168.884C268.983 168.884 272.479 166.528 275.823 163.26C280.383 158.928 284.943 153.304 288.667 148.06C293.987 140.764 299.459 127.008 299.459 119.56C299.459 116.292 297.103 113.404 293.075 113.404C289.731 113.404 287.375 115.38 286.767 119.104C285.627 125.488 283.347 132.86 279.623 139.548H279.471C275.747 132.86 273.543 125.488 272.403 119.104C271.795 115.228 269.287 113.404 266.171 113.404C261.611 113.404 259.407 116.292 259.407 119.56C259.407 127.692 265.107 142.436 270.959 149.504C269.515 151.48 267.843 153.304 265.943 154.9C264.499 156.04 262.295 157.712 261.383 158.7ZM307.616 147.452C307.616 152.012 310.96 153.836 314.304 153.836C317.572 153.836 321.144 152.012 321.144 147.452V119.408C321.144 116.748 319.7 114.24 315.672 114.24H306.02C301.916 114.24 300.548 116.9 300.548 119.408C300.548 122.068 301.84 124.576 306.02 124.576H307.616V147.452ZM312.936 109.376C317.496 109.376 321.22 105.956 321.22 101.7C321.22 97.52 317.496 94.1 312.936 94.1C308.376 94.1 304.652 97.52 304.652 101.7C304.652 105.956 308.376 109.376 312.936 109.376ZM341.753 129.668C342.285 125.184 343.577 122.22 347.301 122.22C350.645 122.22 352.317 123.968 352.697 129.668H341.753ZM328.301 134C328.301 149.96 337.573 154.596 349.125 154.596C354.521 154.596 364.097 153.152 364.097 146.996C364.097 144.868 362.577 142.208 359.233 142.208C358.245 142.208 357.181 142.512 355.965 142.892C353.761 143.576 351.177 144.032 349.125 144.032C345.705 144.032 342.209 142.436 341.829 138.18H358.549C364.097 138.18 364.781 135.14 364.781 131.796C364.781 118.116 357.029 112.644 346.693 112.644C337.345 112.644 328.301 118.8 328.301 134ZM371.921 139.624C371.921 151.024 379.293 154.14 385.981 154.14C390.085 154.14 394.873 153 394.873 147.984C394.873 144.868 392.441 142.968 389.629 142.968C389.021 142.968 388.565 143.044 388.033 143.044C386.285 143.044 385.373 141.6 385.373 138.788V104.588C385.373 100.028 381.877 98.204 378.533 98.204C375.265 98.204 371.921 100.028 371.921 104.588V139.624ZM417.696 144.184C413.972 144.184 411.16 141.752 411.16 133.772C411.16 125.64 414.96 122.904 418.304 122.904C421.268 122.904 422.864 123.74 424.764 126.096V140.308C422.864 143.272 419.824 144.184 417.696 144.184ZM397.176 133.772C397.176 149.58 406.448 154.596 415.568 154.596C421.572 154.596 425.22 151.784 427.576 148.82C428.108 149.96 428.792 150.872 429.552 151.632C431.072 153.152 433.124 153.836 434.872 153.836C438.444 153.836 440.952 151.48 440.952 147.908C440.952 144.716 438.216 140.08 438.216 136.508V104.588C438.216 100.028 434.872 98.204 431.604 98.204C428.26 98.204 424.764 100.028 424.764 104.588V115.532C422.104 113.708 419.444 112.644 415.872 112.644C407.588 112.644 397.176 117.964 397.176 133.772ZM448.672 146.54C448.672 151.024 452.548 154.596 457.336 154.596C462.124 154.596 466.076 151.024 466.076 146.54C466.076 142.132 462.124 138.56 457.336 138.56C452.548 138.56 448.672 142.132 448.672 146.54Z" fill="url(#paint0_linear_0_115)"/>
<defs>
<linearGradient id="paint0_linear_0_115" x1="-14" y1="-22" x2="133.681" y2="391.577" gradientUnits="userSpaceOnUse">
<stop offset="0.108037" stop-color="#5C43FF"/>
<stop offset="1" stop-color="#33CDFF"/>
</linearGradient>
</defs>
</svg>
